<?xml version="1.0" standalone="no"?><!DOCTYPE svg PUBLIC "-//W3C//DTD SVG 1.1//EN" "http://www.w3.org/Graphics/SVG/1.1/DTD/svg11.dtd"><svg class="icon" width="32px" height="32.00px" viewBox="0 0 1024 1024" version="1.1" xmlns="http://www.w3.org/2000/svg"><path d="M96 704h608v224H96v-224zM96 96h608v224H96V96z m320 288h544v256H416v-256z" fill="#FFFFFF" /><path d="M96 704h608v224H96v-224z m32 32v160h544v-160H128zM96 96h608v224H96V96z m32 32v160h544V128H128z m256 0h32v160h-32V128z m0 608h32v160h-32v-160z" fill="#5D6D7E" /><path d="M416 384h544v256H416v-256z m32 32v192h480v-192H448z" fill="#30AD98" /><path d="M192 480v-128h64v128h128v64H256v128H192v-128H64v-64h128z" fill="#C49F74" /></svg>