<?xml version="1.0" standalone="no"?><!DOCTYPE svg PUBLIC "-//W3C//DTD SVG 1.1//EN" "http://www.w3.org/Graphics/SVG/1.1/DTD/svg11.dtd"><svg class="icon" width="32px" height="32.00px" viewBox="0 0 1024 1024" version="1.1" xmlns="http://www.w3.org/2000/svg"><path d="M863.9232 496.3584a23.04 23.04 0 0 1 2.8928 45.9008l-2.8928 0.1792h-298.752a23.04 23.04 0 0 1-2.8928-45.9008l2.8928-0.1792h298.752z" fill="#FF6D00" /><path d="M746.3424 377.2672a23.04 23.04 0 0 1 30.208-2.048l2.3808 2.048 117.4016 117.4272c6.5536 6.8608 10.24 15.9488 10.24 25.344 0 8.3456-2.816 16.4608-8.192 23.04l-2.4576 2.7136-115.7888 115.712a23.04 23.04 0 0 1-34.6368-30.208l2.048-2.3552 108.9536-108.928-110.1568-110.1824a23.04 23.04 0 0 1-2.048-30.208l2.048-2.3552z" fill="#FF6D00" /><path d="M600.576 149.76a94.5664 94.5664 0 0 1 94.208 89.344l0.1536 5.0176v89.088a23.04 23.04 0 0 1-45.9008 2.8928l-0.1792-2.8928v-89.088c0-25.2672-19.7376-46.208-44.544-48.128l-3.7376-0.1792H244.096c-25.2416 0-46.1824 19.7632-48.128 44.544l-0.128 3.7376v550.5536c0 25.2672 19.712 46.208 44.4928 48.128l3.7632 0.1792H600.576c25.2672 0 46.208-19.7632 48.128-44.544l0.1536-3.7376v-78.4128a23.04 23.04 0 0 1 45.9008-2.8928l0.1792 2.8928v78.4128a94.5664 94.5664 0 0 1-89.344 94.208l-5.0176 0.1536H244.096a94.5664 94.5664 0 0 1-94.208-89.3696l-0.128-4.992V244.1216a94.5664 94.5664 0 0 1 89.344-94.2336l4.992-0.128H600.576z" fill="#666666" /></svg>