<?xml version="1.0" standalone="no"?><!DOCTYPE svg PUBLIC "-//W3C//DTD SVG 1.1//EN" "http://www.w3.org/Graphics/SVG/1.1/DTD/svg11.dtd"><svg class="icon" width="32px" height="32.00px" viewBox="0 0 1024 1024" version="1.1" xmlns="http://www.w3.org/2000/svg"><path d="M576 544H256a32 32 0 0 1-32-32V128a32 32 0 0 1 32-32h320a224 224 0 0 1 0 448z m-288-64H576a160 160 0 0 0 0-320H288z" fill="#4D4D4D" /><path d="M640 928H256a32 32 0 0 1-32-32V512a32 32 0 0 1 32-32h384a224 224 0 0 1 0 448z m-352-64H640a160 160 0 0 0 0-320H288z" fill="#4D4D4D" /></svg>