<?xml version="1.0" standalone="no"?><!DOCTYPE svg PUBLIC "-//W3C//DTD SVG 1.1//EN" "http://www.w3.org/Graphics/SVG/1.1/DTD/svg11.dtd"><svg class="icon" width="32px" height="32.00px" viewBox="0 0 1024 1024" version="1.1" xmlns="http://www.w3.org/2000/svg"><path d="M401.066667 378.88H175.786667c-8.533333 0-13.653333 6.826667-13.653334 13.653333 0 8.533333 6.826667 13.653333 13.653334 13.653334h225.28c8.533333 0 13.653333-6.826667 13.653333-13.653334s-5.12-13.653333-13.653333-13.653333z m0 110.933333H175.786667c-8.533333 0-13.653333 6.826667-13.653334 13.653334 0 8.533333 6.826667 13.653333 13.653334 13.653333h225.28c8.533333 0 13.653333-6.826667 13.653333-13.653333s-5.12-13.653333-13.653333-13.653334z m0 109.226667H175.786667c-8.533333 0-13.653333 6.826667-13.653334 13.653333 0 8.533333 6.826667 13.653333 13.653334 13.653334h225.28c8.533333 0 13.653333-6.826667 13.653333-13.653334s-5.12-13.653333-13.653333-13.653333zM612.693333 392.533333c0 8.533333 6.826667 13.653333 13.653334 13.653334h225.28c8.533333 0 13.653333-6.826667 13.653333-13.653334 0-8.533333-6.826667-13.653333-13.653333-13.653333H626.346667c-6.826667 0-13.653333 6.826667-13.653334 13.653333z m237.226667 97.28H626.346667c-8.533333 0-13.653333 6.826667-13.653334 13.653334 0 8.533333 6.826667 13.653333 13.653334 13.653333h225.28c8.533333 0 13.653333-6.826667 13.653333-13.653333 0-8.533333-6.826667-13.653333-15.36-13.653334z m0 109.226667H626.346667c-8.533333 0-13.653333 6.826667-13.653334 13.653333 0 8.533333 6.826667 13.653333 13.653334 13.653334h225.28c8.533333 0 13.653333-6.826667 13.653333-13.653334s-6.826667-13.653333-15.36-13.653333zM737.28 153.6c-81.92 0-174.08 13.653333-223.573333 46.08-47.786667-32.426667-139.946667-46.08-221.866667-46.08C172.373333 153.6 34.133333 180.906667 34.133333 252.586667v581.973333c0 10.24 5.12 18.773333 11.946667 25.6 8.533333 6.826667 17.066667 10.24 27.306667 8.533333 66.56-11.946667 139.946667-17.066667 216.746666-17.066666s151.893333 6.826667 216.746667 17.066666h11.946667c66.56-11.946667 139.946667-17.066667 216.746666-17.066666s151.893333 6.826667 216.746667 17.066666h6.826667c8.533333 0 15.36-3.413333 20.48-8.533333 8.533333-6.826667 11.946667-15.36 11.946666-25.6V252.586667c1.706667-71.68-136.533333-98.986667-254.293333-98.986667zM102.4 797.013333V256c13.653333-13.653333 80.213333-35.84 189.44-35.84 109.226667 0 175.786667 22.186667 189.44 35.84v539.306667c-59.733333-8.533333-124.586667-13.653333-189.44-13.653334-66.56 1.706667-131.413333 6.826667-189.44 15.36z m824.32 0c-117.76-15.36-261.12-15.36-380.586667 0V256c13.653333-13.653333 80.213333-35.84 189.44-35.84 109.226667 0 175.786667 22.186667 189.44 35.84l1.706667 541.013333z" fill="#ff8f10" /></svg>