<?xml version="1.0" standalone="no"?><!DOCTYPE svg PUBLIC "-//W3C//DTD SVG 1.1//EN" "http://www.w3.org/Graphics/SVG/1.1/DTD/svg11.dtd"><svg class="icon" width="32px" height="30.74px" viewBox="0 0 1066 1024" version="1.1" xmlns="http://www.w3.org/2000/svg"><path d="M958.707198 318.706629h-70.946298l-278.393676-212.158655a69.144927 69.144927 0 0 0 9.573719-34.704732 71.047074 71.047074 0 1 0-139.826687 16.993351L177.428729 318.706629H106.520223c-58.878373 0-106.520223 47.301731-106.520223 105.814791v493.663789c0 58.349299 47.64185 105.814791 106.520223 105.814791h852.186975c58.878373 0 106.520223-47.427701 106.520222-105.814791V424.471032c0-58.462672-47.578865-105.764403-106.520222-105.764403z m-467.915524-205.331082a70.417224 70.417224 0 0 0 101.431035 13.126073L852.186975 318.706629H213.141221zM207.208035 789.632836q-22.913941 18.353827-54.973303 18.34123c-32.512854 0-56.963629-10.556285-73.364922-31.114587-14.448758-17.786962-21.414898-41.683469-21.414898-71.702118 0-29.451783 7.21808-53.34829 22.221106-71.966655 16.653233-21.125167 40.549739-31.404318 72.231192-31.404318 23.065105 0 42.237737 5.83241 57.240763 18.064097 14.448758 11.664821 23.342239 27.78898 26.453697 47.793013h-29.502171c-3.338205-13.340222-9.724883-23.342239-19.172632-29.728917s-21.125167-9.447749-35.573925-9.447749c-21.414898 0-37.513863 7.21808-48.347282 21.943972-10.291748 13.340222-15.292757 31.681452-15.292757 54.746557 0 23.934298 5.0388 42.237737 15.003026 55.300825q15.859622 20.835436 49.191281 20.848033c14.448758 0 26.680444-3.615339 36.128192-10.846016q15.003026-11.652224 20.835437-35.00706h29.451783c-4.434144 23.065105-14.725892 41.129201-31.114587 54.179693z m200.909535 14.461354H268.895538V605.678861h30.006052v172.578885h109.21598z m184.243706-25.294773c-17.509828 19.449766-41.406335 29.174649-71.424984 29.174649-30.232797 0-54.167095-10.002017-71.412387-29.451783-16.678427-18.895498-24.727909-43.346273-24.727908-73.364922 0-30.232797 8.049482-54.746557 24.727908-73.642055 17.232694-20.004034 41.129201-29.728917 71.412387-29.728918 30.018648 0 53.915155 9.724883 71.424984 29.451784 16.66583 18.618364 25.005043 43.35887 25.005043 73.919189 0 30.295782-8.339213 54.746557-25.005043 73.642056z m186.435583 14.171623q-20.835436 15.003026-58.361895 15.003026c-24.173641 0-43.069139-5.0388-56.686495-14.448758-16.376099-11.664821-25.282177-30.006051-26.957578-55.023691h30.018648c2.217072 15.569891 7.772348 26.957578 16.66583 33.633987 8.062079 6.109544 20.293765 9.170615 36.959595 9.170615 15.003026 0 26.957578-2.783937 35.851058-7.784945s13.340222-11.954552 13.340222-20.848033c0-11.110553-6.386678-19.7269-18.895498-26.113579-4.446741-2.229669-17.509828-6.676409-39.466398-13.340222-24.450775-7.784945-39.453801-13.063088-45.563345-16.376098-15.292757-9.170615-22.787971-22.49824-22.787971-39.730935 0-17.509828 7.21808-31.127184 21.943972-41.129201q20.873227-14.196818 52.55468-14.196818c23.065105 0 41.129201 4.723875 54.167095 14.725892 13.856699 10.279151 21.679435 26.126176 23.619373 47.805611h-29.993454c-2.783937-12.785954-7.784945-22.233703-15.557294-27.801577-7.784945-5.83241-18.895498-8.60375-33.911121-8.60375q-19.575736 0-30.006051 5.83241c-8.616347 4.446741-12.785954 11.664821-12.785954 21.666838 0 8.906078 4.723875 15.847025 14.725891 21.125168 4.446741 2.5194 15.847025 6.676409 34.465389 12.231686 26.667847 8.326616 44.177675 14.725892 51.962621 19.449766 16.942964 10.279151 25.571908 24.450775 25.571908 42.829796 0.050388 17.749171-6.953543 31.643661-20.848034 41.922812z m196.185661 11.12315H827.7362V605.678861h142.54764v25.836445h-112.264455v57.807627h105.600642v25.836445h-105.600642v63.085771H975.007714z"  /><path d="M520.936292 628.466832c-21.11257 0-37.513863 6.940946-49.128296 21.414898-11.110553 13.617356-16.678427 31.958586-16.678426 55.300825q0 34.603956 16.678426 55.023691c11.664821 13.856699 28.066114 21.125167 49.128296 21.125167s37.513863-6.953543 48.914147-20.570899c11.110553-13.340222 16.942964-31.958586 16.942963-55.577959 0-23.934298-5.83241-42.514871-16.942963-56.132227-11.400284-13.919684-27.78898-20.583496-48.914147-20.583496z"  /></svg>