<?xml version="1.0" standalone="no"?><!DOCTYPE svg PUBLIC "-//W3C//DTD SVG 1.1//EN" "http://www.w3.org/Graphics/SVG/1.1/DTD/svg11.dtd"><svg class="icon" width="32px" height="32.00px" viewBox="0 0 1024 1024" version="1.1" xmlns="http://www.w3.org/2000/svg"><path d="M179.2 447.488c-3.072-3.072-6.656-5.12-10.752-5.632-3.072-1.024-9.728-1.536-18.944-1.536h-10.24v82.432h17.408c6.656 0 11.264-0.512 13.824-1.024 3.584-1.024 6.656-2.56 9.216-5.12s4.608-6.656 6.144-11.776 2.56-13.312 2.56-23.04-1.024-16.896-2.56-22.016-4.096-9.216-6.656-12.288zM283.136 438.784c-9.728 0-17.408 3.584-23.04 10.752s-8.704 17.92-8.704 32.256 3.072 24.576 9.216 32.256c10.24 12.8 28.672 14.848 41.472 4.096 1.536-1.024 3.072-2.56 4.096-4.096 6.144-7.168 9.216-17.92 9.216-32.256s-3.072-25.088-8.704-31.744-13.824-11.264-23.552-11.264z" fill="#2A5699" /><path d="M958.976 187.904c2.048-23.04-15.872-41.472-39.424-38.912-109.056-1.536-217.6 0-326.656-0.512V66.56h-60.928c-156.16 27.648-312.32 54.272-468.48 81.92v713.216c155.136 27.136 310.784 53.248 465.92 81.408h63.488v-81.408c101.888 0 203.776 0 305.664 0.512 17.408-1.024 36.352 0.512 51.2-10.24 11.776-18.432 8.704-40.96 9.728-61.44-0.512-201.216 1.536-401.92-0.512-602.624zM208.896 509.44c-3.072 9.216-7.168 16.384-12.288 22.016-4.096 4.096-9.728 7.68-16.384 9.728-5.12 1.536-11.776 2.56-20.48 2.56h-44.032V419.328h42.496c9.728 0 16.896 1.024 22.016 2.56 6.656 2.048 12.8 6.144 17.408 11.264 5.12 5.632 8.704 12.8 10.752 19.968 2.56 8.192 3.584 17.92 3.584 29.184 0 10.752-1.024 19.968-3.072 27.136z m114.688 19.456c-10.24 11.264-23.552 16.896-40.448 16.896-16.896 0-30.72-5.632-40.96-16.896s-15.36-26.624-15.36-46.592c0-12.8 1.536-23.552 5.12-31.744 2.56-6.144 6.144-12.288 10.752-16.896 4.096-4.608 9.216-8.704 14.848-11.264 7.168-3.072 15.36-5.12 25.088-5.12 16.896 0 30.72 5.632 40.96 16.896s15.36 27.136 15.36 47.616c0 20.48-5.12 35.84-15.36 47.104z m115.712-1.024c-3.584 6.144-9.216 10.752-15.36 13.824-6.656 3.072-14.848 4.608-25.088 4.608-14.336 0-25.6-3.584-33.792-10.752-7.68-7.168-12.288-17.92-13.824-31.744l22.528-2.56c1.536 8.192 4.096 14.336 8.192 17.92s9.728 5.632 16.896 5.632c7.68 0 13.312-1.536 16.896-5.12 3.584-3.584 5.632-7.68 5.632-11.776 0-2.56-1.024-5.12-2.56-7.68-1.536-2.048-4.608-4.096-8.192-5.632-2.56-1.024-8.704-3.072-18.432-5.632-12.288-3.584-20.992-7.68-26.112-12.288-7.168-6.656-10.752-15.36-10.752-25.088 0-6.144 1.536-12.288 5.12-17.92s8.192-9.728 14.336-12.8c6.144-3.072 13.824-4.096 22.528-4.096 14.336 0 25.6 3.584 32.768 10.24 7.168 6.656 11.264 15.872 11.776 27.648l-23.04 1.024c-1.024-6.656-3.072-10.752-6.656-13.824s-8.192-4.096-14.848-4.096c-6.656 0-12.288 1.536-15.872 4.608-2.56 2.048-3.584 4.608-3.584 7.68s1.024 5.632 3.584 7.68c3.072 2.56 10.24 5.632 21.504 8.192s19.456 5.632 25.088 9.216c5.12 3.072 9.728 7.168 12.8 12.8 3.072 5.12 4.608 11.776 4.608 19.968-0.512 7.168-2.048 13.824-6.144 19.968z m489.984 303.104h-336.384v-81.408h264.704v-40.96h-264.704v-50.688h264.704v-40.96h-264.704v-50.688h264.704v-40.96h-264.704v-51.2h264.704v-40.96h-264.704v-50.688h264.704v-40.96h-264.704v-50.688h264.704v-40.96h-264.704V178.688h336.384v652.288z" fill="#2A5699" /></svg>