<?xml version="1.0" standalone="no"?><!DOCTYPE svg PUBLIC "-//W3C//DTD SVG 1.1//EN" "http://www.w3.org/Graphics/SVG/1.1/DTD/svg11.dtd"><svg class="icon" width="32px" height="32.00px" viewBox="0 0 1024 1024" version="1.1" xmlns="http://www.w3.org/2000/svg"><path d="M478 205.9c0 23.2-18.8 42-42 42s-42-18.8-42-42 18.8-42 42-42 42 18.8 42 42z" fill="#F09069" /><path d="M436 286.8c-7.4 0-14-4.1-17.4-10.6-1.8-3.5-6.3-5-9.9-3.2-8 4.1-17.9 2-23.7-4.8-3.7-4.4-5.3-9.9-4.4-15.7 0.6-4-2.1-7.8-6.1-8.4-7.3-1.2-13.2-6.2-15.5-13.2-2.3-7-0.5-14.6 4.7-19.8 2.9-2.9 2.9-7.5 0-10.4-5.2-5.2-7-12.8-4.7-19.8s8.2-12.1 15.5-13.2c4-0.6 6.7-4.4 6.1-8.4-0.9-5.7 0.7-11.3 4.4-15.7 5.8-6.7 15.7-8.8 23.7-4.7 1 0.5 2.2 0.8 3.3 0.8 2.8 0 5.3-1.5 6.5-4 3.4-6.6 10-10.6 17.4-10.6 7.4 0 14 4.1 17.4 10.6 1.8 3.5 6.3 5 9.9 3.2 8-4.1 17.9-2 23.7 4.8 3.7 4.4 5.3 9.9 4.4 15.7-0.6 4 2.1 7.8 6.1 8.4 7.3 1.2 13.2 6.2 15.5 13.2 2.3 7 0.5 14.6-4.7 19.8-2.8 2.9-2.8 7.5 0 10.4 5.2 5.2 7 12.8 4.7 19.8s-8.2 12.1-15.5 13.2c-4 0.6-6.7 4.4-6.1 8.4 0.9 5.7-0.7 11.3-4.4 15.7-5.8 6.7-15.7 8.8-23.7 4.8-3.5-1.8-8.1-0.3-9.9 3.2-3.3 6.5-10 10.5-17.3 10.5zM412 260c7.4 0 14 4.1 17.4 10.6 1.3 2.5 3.7 4 6.5 4s5.3-1.5 6.5-4c3.3-6.6 10-10.6 17.4-10.6 3 0 6.1 0.7 8.8 2.1 3.1 1.6 6.8 0.7 9-1.8 1-1.2 2.1-3.1 1.6-5.9-1.7-10.6 5.6-20.6 16.2-22.3 2.8-0.5 5-2.3 5.8-5 0.9-2.7 0.2-5.5-1.8-7.5-7.6-7.6-7.6-20 0-27.6 2-2 2.7-4.8 1.8-7.5-0.9-2.7-3.1-4.5-5.8-5-10.6-1.7-17.9-11.7-16.2-22.3 0.4-2.8-0.6-4.7-1.6-5.9-2.2-2.5-5.9-3.4-9-1.8-2.7 1.4-5.8 2.1-8.8 2.1-7.4 0-14-4.1-17.4-10.6-1.3-2.5-3.7-4-6.5-4s-5.3 1.5-6.5 4c-3.3 6.6-10 10.6-17.4 10.6-3 0-6.1-0.7-8.8-2.1-3.1-1.6-6.8-0.7-9 1.8-1 1.1-2.1 3.1-1.6 5.9 1.7 10.6-5.6 20.6-16.2 22.3-2.8 0.5-5 2.3-5.8 5-0.9 2.7-0.2 5.4 1.8 7.5 7.6 7.6 7.6 20 0 27.6-2 2-2.7 4.8-1.8 7.5 0.9 2.7 3 4.5 5.8 5 10.6 1.7 17.9 11.7 16.2 22.3-0.4 2.8 0.6 4.7 1.6 5.9 2.2 2.5 5.9 3.4 9 1.8 2.7-1.3 5.8-2.1 8.8-2.1z" fill="#495460" /><path d="M724 707.9l-4.7-19.5 198.5-239c1.3 35.8-7 90.2-55.3 142.7l-105 120.4-33.5-4.6z" fill="#FDDA43" /><path d="M791.7 959.5H296.4l-1-0.5L116 897c-20.7-4.6-35.7-23.2-35.7-44.4V64.5h711.4V579l-87.9 105.9 8.7 35.8 50.7 7 28.5-32.7v264.5z m-492.8-12.2h480.7v-220L768 740.6l-65.4-9-12.1-49.8 89.1-107.2V76.7H92.4v776c0 15.4 10.8 29 25.8 32.4h1.7l0.9 0.8 178.1 61.4z" fill="#495460" /><path d="M196.5 361.3h489.4v12.2H196.5z m65.7 65.1h61v12.2h-61z m0 61.5h61v12.2h-61z m101.2-61.5h249.1v12.2H363.4z m0 61.5h249.1v12.2H363.4z m-166.9 54.7h489.4v12.2H196.5z m0 52.1h489.4v12.2H196.5zM676.7 659h-12.2v-12.2h12.2V659z m-24.4 0h-12.2v-12.2h12.2V659z m-24.3 0h-12.2v-12.2H628V659z m-24.3 0h-12.2v-12.2h12.2V659z m-24.4 0h-12.2v-12.2h12.2V659z m-24.3 0h-12.2v-12.2H555V659z m-24.3 0h-12.2v-12.2h12.2V659z m-24.4 0h-12.2v-12.2h12.2V659z m-24.3 0h-12.2v-12.2H482V659z m-24.4 0h-12.2v-12.2h12.2V659z m-24.3 0h-12.2v-12.2h12.2V659z m-24.3 0h-12.2v-12.2H409V659z m-24.4 0h-12.2v-12.2h12.2V659z m-24.3 0h-12.2v-12.2h12.2V659z m-24.3 0h-12.2v-12.2H336V659z m-24.4 0h-12.2v-12.2h12.2V659z m-24.3 0h-12.2v-12.2h12.2V659z m-24.3 0h-12.2v-12.2H263V659z m-24.4 0h-12.2v-12.2h12.2V659z m-24.3 0h-12.2v-12.2h12.2V659z m243.1 143h236.7v12.2H457.4zM295.8 959.1l-180-62.2 3.2-11.7c2.3 0.5 4.5 0.7 6.8 0.7 18.4 0 33.3-14.9 33.3-33.3 0-7.2-2.3-14.1-6.6-19.9l8.9-8.2 140.4 124.3-6 10.3zM144.5 894l126.2 43.6-99.7-88.2c0.1 1.1 0.1 2.1 0.1 3.2 0.1 18.4-10.9 34.3-26.6 41.4z" fill="#495460" /><path d="M635.812 804.083l273.419-333.972 9.44 7.729-273.418 333.972z" fill="#495460" /><path d="M768 740.6l-65.4-9-12.1-49.8 242.2-291.6 3.5 10.2c0.4 1.1 36.8 110.3-54.4 209.7L768 740.6z m-55.5-19.9l50.7 7L872.8 602c69.7-75.9 60.9-157.5 54.8-186.6L703.7 684.9l8.8 35.8z" fill="#495460" /></svg>