<?xml version="1.0" standalone="no"?><!DOCTYPE svg PUBLIC "-//W3C//DTD SVG 1.1//EN" "http://www.w3.org/Graphics/SVG/1.1/DTD/svg11.dtd"><svg class="icon" width="32px" height="32.00px" viewBox="0 0 1024 1024" version="1.1" xmlns="http://www.w3.org/2000/svg"><path d="M807.2 888H298.4c-44.8 0-80.8-36-80.8-80.8V298.4c0-44.8 36-80.8 80.8-80.8h508.8c44.8 0 80.8 36 80.8 80.8v508.8c0 44.8-36 80.8-80.8 80.8zM298.4 265.6c-18.4 0-32.8 14.4-32.8 32.8v508.8c0 18.4 14.4 32.8 32.8 32.8h508.8c18.4 0 32.8-14.4 32.8-32.8V298.4c0-18.4-14.4-32.8-32.8-32.8H298.4z" fill="#999999" /><path d="M676.8 468.8H428c-48 0-86.4-38.4-86.4-86.4V257.6h48v124.8c0 20.8 17.6 38.4 38.4 38.4h248.8c20.8 0 38.4-17.6 38.4-38.4V257.6h48v124.8c0 48-38.4 86.4-86.4 86.4z" fill="#999999" /><path d="M654.4 383.2c-13.6 0-24-10.4-24-24V259.2c0-13.6 10.4-24 24-24s24 10.4 24 24v100c0 13.6-10.4 24-24 24zM708.8 635.2H397.6c-13.6 0-24-10.4-24-24s10.4-24 24-24h311.2c13.6 0 24 10.4 24 24s-10.4 24-24 24zM708.8 752.8H397.6c-13.6 0-24-10.4-24-24s10.4-24 24-24h311.2c13.6 0 24 10.4 24 24s-10.4 24-24 24z" fill="#999999" /><path d="M258.4 806.4h-36.8c-48 0-86.4-38.4-86.4-86.4V222.4c0-48 38.4-86.4 86.4-86.4H720c48 0 86.4 38.4 86.4 86.4V256h-48v-33.6c0-20.8-17.6-38.4-38.4-38.4H221.6c-20.8 0-38.4 17.6-38.4 38.4V720c0 20.8 17.6 38.4 38.4 38.4h36.8v48z" fill="#999999" /></svg>