<?xml version="1.0" standalone="no"?><!DOCTYPE svg PUBLIC "-//W3C//DTD SVG 1.1//EN" "http://www.w3.org/Graphics/SVG/1.1/DTD/svg11.dtd"><svg class="icon" width="32px" height="32.00px" viewBox="0 0 1024 1024" version="1.1" xmlns="http://www.w3.org/2000/svg"><path d="M512 929.959184c-199.053061 0-361.012245-161.959184-361.012245-361.012245 0-130.612245 71.053061-251.297959 184.946939-315.559184 9.926531-5.746939 22.987755-2.089796 28.212245 7.836735 5.746939 9.926531 2.089796 22.987755-7.836735 28.212245-100.832653 56.42449-163.526531 163.526531-163.526531 278.987755 0 176.065306 143.15102 319.216327 319.216327 319.216326s319.216327-143.15102 319.216327-319.216326c0-115.461224-62.693878-222.563265-163.526531-278.987755-9.926531-5.746939-13.583673-18.285714-7.836735-28.212245 5.746939-9.926531 18.285714-13.583673 28.212245-7.836735 113.893878 63.738776 184.946939 184.946939 184.946939 315.036735 0 199.57551-161.959184 361.534694-361.012245 361.534694z" fill="#333333" /><path d="M512 501.55102c-49.110204 0-88.816327-39.706122-88.816327-88.816326V182.857143c0-49.110204 39.706122-88.816327 88.816327-88.816327s88.816327 39.706122 88.816327 88.816327v229.877551c0 49.110204-39.706122 88.816327-88.816327 88.816326z m0-365.714285c-26.122449 0-47.020408 20.897959-47.020408 47.020408v229.877551c0 26.122449 20.897959 47.020408 47.020408 47.020408s47.020408-20.897959 47.020408-47.020408V182.857143c0-26.122449-20.897959-47.020408-47.020408-47.020408z" fill="#333333" /></svg>