<?xml version="1.0" standalone="no"?><!DOCTYPE svg PUBLIC "-//W3C//DTD SVG 1.1//EN" "http://www.w3.org/Graphics/SVG/1.1/DTD/svg11.dtd"><svg class="icon" width="32px" height="32.00px" viewBox="0 0 1024 1024" version="1.1" xmlns="http://www.w3.org/2000/svg"><path fill="#000000" d="M702.19 546.1a21.007 21.007 0 0 0-18.63-11.32H568.94c-11.6 0-21 9.4-21 21s9.4 21 21 21h74.2l-91.38 130.09c-4.5 6.41-5.06 14.8-1.45 21.75s10.8 11.32 18.63 11.32h114.61c11.6 0 21-9.4 21-21s-9.4-21-21-21h-74.2l91.38-130.09a20.989 20.989 0 0 0 1.46-21.75zM646.28 253.57a21.012 21.012 0 0 0-19.53-13.41h-0.05c-8.63 0-16.39 5.28-19.54 13.32l-65.18 165.81c-4.24 10.79 1.07 22.98 11.86 27.23 2.52 0.99 5.12 1.46 7.68 1.46 8.38 0 16.3-5.05 19.55-13.32l11.01-28h68.53l10.8 27.85c4.19 10.81 16.36 16.18 27.17 11.99 10.81-4.19 16.18-16.36 11.99-27.17l-64.29-165.76z m-37.7 111.09l17.99-45.75 17.74 45.75h-35.73zM501.19 598.23c-9.05-7.26-22.26-5.81-29.52 3.24l-47.33 58.99V261.67c0-11.6-9.4-21-21-21s-21 9.4-21 21v398.78L335 601.46c-7.26-9.04-20.47-10.49-29.52-3.24-9.05 7.26-10.5 20.48-3.24 29.52l81.22 101.23c4.86 6.06 12.1 9.53 19.87 9.53s15.01-3.47 19.87-9.53l81.22-101.23c7.26-9.04 5.81-22.26-3.23-29.51z"  /><path fill="#000000" d="M827.47 90.39H182.13c-42.46 0-77 34.54-77 77v645.33c0 42.46 34.54 77 77 77h645.33c42.46 0 77-34.54 77-77V167.39c0.01-42.46-34.54-77-76.99-77z m35 722.33c0 19.3-15.7 35-35 35H182.13c-19.3 0-35-15.7-35-35V167.39c0-19.3 15.7-35 35-35h645.33c19.3 0 35 15.7 35 35v645.33z"  /></svg>