<?xml version="1.0" standalone="no"?><!DOCTYPE svg PUBLIC "-//W3C//DTD SVG 1.1//EN" "http://www.w3.org/Graphics/SVG/1.1/DTD/svg11.dtd"><svg class="icon" width="32px" height="32.00px" viewBox="0 0 1024 1024" version="1.1" xmlns="http://www.w3.org/2000/svg"><path fill="#000000" d="M629.455085 538.03598v-42.637076h29.889751c13.917988 0 25.200962-11.282974 25.200962-25.200962 0-13.917988-11.282974-25.200962-25.200962-25.200962h-29.889751v-58.240449h29.889751c13.917988 0 25.200962-11.282974 25.200962-25.200962 0-13.917988-11.282974-25.200962-25.200962-25.200961h-29.889751v-58.240449h29.889751c13.917988 0 25.200962-11.282974 25.200962-25.200962s-11.282974-25.200962-25.200962-25.200962h-29.889751v-33.363875c0-64.764026-52.690036-117.454062-117.454062-117.454062s-117.455085 52.690036-117.455085 117.454062V538.037003c-64.475454 40.352033-103.930047 110.928439-103.930048 187.68459 0 59.134819 23.028483 114.728998 64.840774 156.542312 41.814338 41.814338 97.40954 64.841797 156.543336 64.841797 59.133795 0 114.728998-23.028483 156.542312-64.841797s64.841797-97.408517 64.841798-156.542312c0.002047-76.757175-39.452547-147.332557-103.929025-187.685613zM512.002047 896.701732c-94.279247 0-170.982186-76.701916-170.982186-170.982186 0-63.268976 34.715663-121.105219 90.596367-150.937664a25.200962 25.200962 0 0 0 13.33368-22.231327V194.346313c0-36.972053 30.079062-67.052139 67.052139-67.052138 36.972053 0 67.052139 30.079062 67.052138 67.052138v358.203218a25.199938 25.199938 0 0 0 13.33368 22.231328c55.883775 29.832446 90.597391 87.668689 90.597391 150.937664-0.001023 94.281293-76.703963 170.983209-170.983209 170.983209z"  /><path fill="#000000" d="M526.429641 616.008842V191.670367c0-13.917988-11.281951-25.200962-25.200962-25.200961s-25.200962 11.282974-25.200962 25.200961v426.601005c0 0.853437 0.042979 1.697665 0.125867 2.530636-46.312792 15.126512-79.871095 58.728566-79.871096 110.027929 0 63.807235 51.9113 115.718535 115.719559 115.718535S627.720581 794.637172 627.720581 730.829937c0-58.921971-44.268226-107.696838-101.29094-114.821095z m-14.427594 200.298885c-47.13246 0-85.47779-38.34533-85.47779-85.476766s38.34533-85.476767 85.47779-85.476767 85.476767 38.34533 85.476766 85.476767-38.344307 85.476767-85.476766 85.476766z"  /></svg>