<?xml version="1.0" standalone="no"?><!DOCTYPE svg PUBLIC "-//W3C//DTD SVG 1.1//EN" "http://www.w3.org/Graphics/SVG/1.1/DTD/svg11.dtd"><svg class="icon" width="32px" height="32.00px" viewBox="0 0 1024 1024" version="1.1" xmlns="http://www.w3.org/2000/svg"><path fill="#000000" d="M282.498 239.211c0 118.456 96.025 214.484 214.478 214.484h32.999V24.73h-32.999c-118.453 0-214.478 96.028-214.478 214.481zM485.97 398.686c-88.07 0-159.469-71.399-159.469-159.472 0-88.07 71.399-159.469 159.469-159.469v318.941zM148.36 581.043c102.584 59.228 233.762 24.082 292.99-78.503l16.501-28.578L86.356 259.481l-16.501 28.578c-59.228 102.584-24.079 233.756 78.506 292.984z m239.844-96.476c-44.035 76.27-141.567 102.406-217.843 58.368C94.088 498.9 67.955 401.368 111.99 325.098l276.214 159.469z m-9.514 382.458c102.584-59.228 137.737-190.403 78.509-292.987l-16.501-28.578-371.49 214.481 16.501 28.578c59.225 102.584 190.397 137.731 292.981 78.506z m36.372-255.95c44.035 76.27 17.902 173.802-58.374 217.84-76.273 44.035-173.802 17.902-217.837-58.368l276.211-159.472z m326.44 197.714c0-118.456-96.025-214.484-214.478-214.484h-32.999v428.965h32.999c118.453 0 214.478-96.028 214.478-214.481zM538.03 649.314c88.07 0 159.469 71.399 159.469 159.472 0 88.07-71.399 159.469-159.469 159.469V649.314z m337.61-182.357c-102.584-59.228-233.762-24.082-292.99 78.503l-16.501 28.578 371.495 214.481 16.501-28.578c59.228-102.584 24.079-233.756-78.506-292.984z m-239.844 96.476c44.035-76.27 141.567-102.406 217.843-58.368 76.27 44.035 102.406 141.567 58.371 217.837L635.796 563.433z m9.514-382.458c-102.584 59.228-137.737 190.403-78.509 292.987l16.501 28.578 371.495-214.481-16.501-28.578c-59.231-102.584-190.403-137.731-292.987-78.506z m-36.372 255.95c-44.035-76.27-17.902-173.802 58.374-217.84 76.273-44.035 173.802-17.902 217.837 58.368L608.938 436.925z m-13.561 20.538z"  /></svg>