<?xml version="1.0" standalone="no"?><!DOCTYPE svg PUBLIC "-//W3C//DTD SVG 1.1//EN" "http://www.w3.org/Graphics/SVG/1.1/DTD/svg11.dtd"><svg class="icon" width="32px" height="31.97px" viewBox="0 0 1025 1024" version="1.1" xmlns="http://www.w3.org/2000/svg"><path fill="#000000" d="M575.711 493.233c42.639-42.639 66.122-99.33 66.122-159.63s-23.483-116.992-66.122-159.63c-42.638-42.64-99.33-66.122-159.63-66.122s-116.99 23.482-159.63 66.121-66.12 99.331-66.12 159.631 23.482 116.991 66.12 159.63 99.33 66.121 159.63 66.121 116.992-23.482 159.63-66.121z m-335.718-159.63c0-97.096 78.992-176.09 176.088-176.09s176.089 78.994 176.089 176.09-78.993 176.088-176.089 176.088S239.993 430.7 239.993 333.603zM689.114 485.028c-79.95 0-144.994 65.045-144.994 144.994 0 79.95 65.045 144.995 144.994 144.995s144.994-65.044 144.994-144.995c0-79.95-65.044-144.994-144.994-144.994z m0 260.192c-63.52 0-115.196-51.678-115.196-115.198 0-63.52 51.677-115.196 115.196-115.196s115.197 51.676 115.197 115.196c0 63.521-51.678 115.198-115.197 115.198zM517.853 682.866c0-50.588-41.157-91.747-91.747-91.747s-91.746 41.159-91.746 91.747 41.157 91.747 91.746 91.747 91.747-41.158 91.747-91.747z m-91.747 61.95c-34.158 0-61.949-27.791-61.949-61.95 0-34.159 27.79-61.95 61.95-61.95s61.949 27.791 61.949 61.95c0 34.159-27.791 61.95-61.95 61.95zM544.616 761.461c-42.648 0-77.345 34.697-77.345 77.344s34.697 77.343 77.345 77.343c42.648 0 77.343-34.696 77.343-77.343s-34.696-77.344-77.343-77.344z m0 124.89c-26.217 0-47.547-21.328-47.547-47.545s21.33-47.547 47.547-47.547 47.546 21.33 47.546 47.547-21.33 47.546-47.546 47.546z"  /></svg>