<?xml version="1.0" standalone="no"?><!DOCTYPE svg PUBLIC "-//W3C//DTD SVG 1.1//EN" "http://www.w3.org/Graphics/SVG/1.1/DTD/svg11.dtd"><svg class="icon" width="32px" height="32.00px" viewBox="0 0 1024 1024" version="1.1" xmlns="http://www.w3.org/2000/svg"><path fill="#000000" d="M293.377 647.668c-69.846 0-126.665-56.824-126.665-126.665 0-69.845 56.819-126.669 126.665-126.669 69.841 0 126.664 56.824 126.664 126.669 0 69.841-56.823 126.665-126.664 126.665z m0-190.907c-35.423 0-64.242 28.819-64.242 64.242 0 35.422 28.819 64.241 64.242 64.241 35.422 0 64.241-28.819 64.241-64.241 0-35.423-28.819-64.242-64.241-64.242z m0 0M730.624 415.329c-69.842 0-126.665-56.819-126.665-126.661 0-69.845 56.823-126.668 126.665-126.668 69.845 0 126.664 56.823 126.664 126.668 0 69.842-56.823 126.661-126.664 126.661z m0-190.906c-35.423 0-64.238 28.819-64.238 64.245 0 35.419 28.815 64.238 64.238 64.238 35.422 0 64.241-28.819 64.241-64.238 0-35.426-28.819-64.245-64.241-64.245z m0 0M730.624 862c-69.842 0-126.665-56.823-126.665-126.665 0-69.845 56.823-126.668 126.665-126.668 69.845 0 126.664 56.823 126.664 126.668 0 69.842-56.823 126.665-126.664 126.665z m0-190.906c-35.423 0-64.238 28.819-64.238 64.241 0 35.423 28.815 64.238 64.238 64.238 35.422 0 64.241-28.815 64.241-64.238 0-35.422-28.819-64.241-64.241-64.241z m0 0"  /><path fill="#000000" d="M626.095 735.335L364.279 592.812l26.431-48.598 261.815 142.52-26.43 48.601z m0 0M402.928 507.973l-27.15-48.203 249.597-143.416 27.15 48.204-249.597 143.415z m0 0"  /></svg>