<?xml version="1.0" standalone="no"?><!DOCTYPE svg PUBLIC "-//W3C//DTD SVG 1.1//EN" "http://www.w3.org/Graphics/SVG/1.1/DTD/svg11.dtd"><svg class="icon" width="32px" height="32.00px" viewBox="0 0 1024 1024" version="1.1" xmlns="http://www.w3.org/2000/svg"><path fill="#000000" d="M861.118 212.793l0.207-0.197-3.083-3.427 0.162-0.156-3.529-3.694a36.559 36.559 0 0 0-0.194-0.205l-0.001-0.002h-0.001l-3.164-3.311-0.018-0.019a34.56 34.56 0 0 0-1.213-1.209l-2.56-2.643-0.112 0.106-3.282-3.237-0.21 0.2c-28.428-24.865-64.201-38.483-101.441-38.483-43.072 0-83.394 17.802-113.537 50.126L271.82 589.822c-32.473 34.824-30.569 89.57 4.245 122.04l8.653 8.068c16.042 14.957 36.952 23.193 58.88 23.193 23.856 0 46.858-9.992 63.108-27.416l277.91-298.026c5.294-5.68 8.061-13.08 7.79-20.839-0.271-7.761-3.548-14.95-9.226-20.242a28.96 28.96 0 0 0-19.817-7.809 29.173 29.173 0 0 0-21.263 9.242L364.185 676.06c-5.368 5.759-12.678 8.931-20.581 8.931a28.118 28.118 0 0 1-19.238-7.576l-8.655-8.072c-5.521-5.148-8.705-12.124-8.964-19.644-0.26-7.521 2.435-14.705 7.588-20.23l357.319-383.181c19.026-20.402 44.247-31.639 71.015-31.639 25.478 0 49.765 10.306 68.412 29.021 38.179 41.806 36.579 108.349-3.604 148.433L430.561 768.078c-26.681 26.615-62.073 41.272-99.658 41.272-38.166 0-73.969-15.045-100.814-42.36l-2.854-2.905c-55.469-56.439-56.212-148.965-1.657-206.254l286.081-300.406c5.354-5.623 8.199-12.994 8.009-20.756-0.189-7.762-3.391-14.985-9.013-20.34a28.947 28.947 0 0 0-20.044-8.018 29.204 29.204 0 0 0-21.052 9.021L183.478 517.74c-36.862 38.71-56.928 89.842-56.501 143.978 0.427 54.146 21.308 104.972 58.795 143.113l2.854 2.905c37.863 38.528 88.392 59.747 142.278 59.747 53.083 0 103.056-20.685 140.712-58.243L848.53 433.261c59.71-59.558 64.734-155.167 12.588-220.468z"  /></svg>