<?xml version="1.0" standalone="no"?><!DOCTYPE svg PUBLIC "-//W3C//DTD SVG 1.1//EN" "http://www.w3.org/Graphics/SVG/1.1/DTD/svg11.dtd"><svg class="icon" width="32px" height="32.00px" viewBox="0 0 1024 1024" version="1.1" xmlns="http://www.w3.org/2000/svg"><path d="M976 542.4H324.8c-17.6 0-32-14.4-32-32s14.4-32 32-32H976c17.6 0 32 14.4 32 32s-14.4 32-32 32zM976 833.6H324.8c-17.6 0-32-14.4-32-32s14.4-32 32-32H976c17.6 0 32 14.4 32 32s-14.4 32-32 32z" fill="#43484D" /><path d="M976 268.8H324.8c-17.6 0-32-14.4-32-32s14.4-32 32-32H976c17.6 0 32 14.4 32 32s-14.4 32-32 32z" fill="#229BFF" /><path d="M91.2 564.8c-30.4 0-54.4-24-54.4-54.4s24-54.4 54.4-54.4 54.4 24 54.4 54.4-24 54.4-54.4 54.4z m0-64c-4.8 0-9.6 4.8-9.6 9.6s4.8 9.6 9.6 9.6 9.6-4.8 9.6-9.6-3.2-9.6-9.6-9.6zM91.2 856c-30.4 0-54.4-24-54.4-54.4s24-54.4 54.4-54.4 54.4 24 54.4 54.4-24 54.4-54.4 54.4z m0-64c-4.8 0-9.6 4.8-9.6 9.6s4.8 9.6 9.6 9.6 9.6-4.8 9.6-9.6-3.2-9.6-9.6-9.6z" fill="#43484D" /><path d="M91.2 291.2c-30.4 0-54.4-24-54.4-54.4s24-54.4 54.4-54.4 54.4 24 54.4 54.4-24 54.4-54.4 54.4z m0-64c-4.8 0-9.6 4.8-9.6 9.6s4.8 9.6 9.6 9.6 9.6-4.8 9.6-9.6-3.2-9.6-9.6-9.6z" fill="#229BFF" /></svg>