<?xml version="1.0" standalone="no"?><!DOCTYPE svg PUBLIC "-//W3C//DTD SVG 1.1//EN" "http://www.w3.org/Graphics/SVG/1.1/DTD/svg11.dtd"><svg class="icon" width="32px" height="32.00px" viewBox="0 0 1024 1024" version="1.1" xmlns="http://www.w3.org/2000/svg"><path d="M128 298.666667h768v554.666666c0 25.6-17.066667 42.666667-42.666667 42.666667H170.666667c-25.6 0-42.666667-17.066667-42.666667-42.666667V298.666667z" fill="#FFFFFF" /><path d="M853.333333 917.333333H170.666667c-34.133333 0-64-29.866667-64-64V277.333333h810.666666V853.333333c0 34.133333-29.866667 64-64 64zM149.333333 320V853.333333c0 12.8 8.533333 21.333333 21.333334 21.333334h682.666666c12.8 0 21.333333-8.533333 21.333334-21.333334V320h-725.333334z" fill="#555555" /><path d="M917.333333 320h-810.666666V170.666667c0-34.133333 29.866667-64 64-64h682.666666c34.133333 0 64 29.866667 64 64v149.333333z m-768-42.666667h725.333334V170.666667c0-12.8-8.533333-21.333333-21.333334-21.333334H170.666667c-12.8 0-21.333333 8.533333-21.333334 21.333334v106.666666z" fill="#428BF9" /><path d="M128 170.666667c0-25.6 17.066667-42.666667 42.666667-42.666667h682.666666c25.6 0 42.666667 17.066667 42.666667 42.666667v128H128V170.666667z" fill="#428BF9" opacity=".5" /><path d="M448 691.2l-93.866667 93.866667c-8.533333 8.533333-21.333333 8.533333-29.866666 0l-93.866667-93.866667c-8.533333-8.533333-8.533333-21.333333 0-29.866667 8.533333-8.533333 21.333333-8.533333 29.866667 0l55.466666 55.466667V384h42.666667v332.8l55.466667-55.466667c8.533333-8.533333 21.333333-8.533333 29.866666 0 12.8 8.533333 12.8 21.333333 4.266667 29.866667z" fill="#428BF9" /><path d="M576 460.8l93.866667-93.866667c8.533333-8.533333 21.333333-8.533333 29.866666 0l93.866667 93.866667c8.533333 8.533333 8.533333 21.333333 0 29.866667-8.533333 8.533333-21.333333 8.533333-29.866667 0l-55.466666-55.466667V768h-42.666667v-332.8l-55.466667 55.466667c-8.533333 8.533333-21.333333 8.533333-29.866666 0-12.8-8.533333-12.8-21.333333-4.266667-29.866667z" fill="#555555" /></svg>