<?xml version="1.0" standalone="no"?><!DOCTYPE svg PUBLIC "-//W3C//DTD SVG 1.1//EN" "http://www.w3.org/Graphics/SVG/1.1/DTD/svg11.dtd"><svg class="icon" width="32px" height="32.00px" viewBox="0 0 1024 1024" version="1.1" xmlns="http://www.w3.org/2000/svg"><path fill="#000000" d="M840.704 443.008l-98.56-307.968a10.048 10.048 0 0 0-9.6-7.04H648.32c-4.48 0-8.256 2.816-9.664 7.04L539.52 443.008a10.112 10.112 0 0 0-0.64 3.2c0 5.504 4.608 10.048 10.176 10.048h61.312a10.24 10.24 0 0 0 9.792-7.36l19.008-67.008h96.704l18.816 66.88a10.112 10.112 0 0 0 9.792 7.36h66.56a9.408 9.408 0 0 0 3.008-0.384 10.496 10.496 0 0 0 5.952-5.056 10.56 10.56 0 0 0 0.64-7.68z m-191.68-117.76l35.648-127.04h6.848l34.944 127.104h-77.44z m155.968 535.808h-140.8v-0.448l144.064-205.312a10.176 10.176 0 0 0 1.92-5.888V609.92a10.176 10.176 0 0 0-10.176-10.112H578.304a10.176 10.176 0 0 0-10.112 10.112v46.72c0 5.568 4.544 10.112 10.112 10.112h133.248v0.448l-144.64 205.312a10.176 10.176 0 0 0-1.92 5.888v39.552c0 5.568 4.608 10.112 10.112 10.112h229.76a10.176 10.176 0 0 0 10.176-10.112v-46.72a9.984 9.984 0 0 0-10.048-10.112z m-539.648 41.856a8.704 8.704 0 0 1-13.696 0l-121.728-154.24a8.704 8.704 0 0 1 6.848-14.08h82.56V158.4c0-4.8 3.968-8.704 8.768-8.704h60.8c4.8 0 8.704 3.904 8.704 8.704v576.064h82.624c7.296 0 11.456 8.512 6.848 14.144l-121.728 154.24z"  /></svg>