<?xml version="1.0" standalone="no"?><!DOCTYPE svg PUBLIC "-//W3C//DTD SVG 1.1//EN" "http://www.w3.org/Graphics/SVG/1.1/DTD/svg11.dtd"><svg class="icon" width="32px" height="32.00px" viewBox="0 0 1024 1024" version="1.1" xmlns="http://www.w3.org/2000/svg"><path fill="#000000" d="M1005.211956 0.000088H18.729282A18.729194 18.729194 0 0 0 0.000088 18.729282v986.482674A18.729194 18.729194 0 0 0 18.729282 1024h538.482712a18.729194 18.729194 0 0 0 18.729194-18.729194v-26.482756a18.729194 18.729194 0 0 0-18.729194-18.729194H82.729277a18.729194 18.729194 0 0 1-18.729194-18.846895V82.729277A18.729194 18.729194 0 0 1 82.729277 64.000083h858.482684a18.729194 18.729194 0 0 1 18.729194 18.729194v474.512143a18.729194 18.729194 0 0 0 18.729194 18.729193h26.482756A18.729194 18.729194 0 0 0 1024 557.24142v-538.482713A18.729194 18.729194 0 0 0 1005.211956 0.000088zM269.60926 128.000077c-9.85747 0-17.846435 8.386206-17.846435 18.729194v730.482696c0 10.29885 7.988965 18.729194 17.846435 18.729193h25.291033c9.85747 0 17.861148-8.386206 17.861148-18.729193V146.714558c0-10.29885-8.003677-18.729194-17.861148-18.729193zM468.259358 256.397308c-9.85747 0-17.861148 5.576091-17.861148 12.461608v486.223406c0 6.885517 8.003677 12.461608 17.861148 12.461608h25.291033c9.85747 0 17.846435-5.576091 17.846435-12.461608V268.858916c0-6.885517-7.988965-12.461608-17.846435-12.461608zM988.36598 652.579342c-7.356321-7.356321-16.919539-9.57793-21.43632-5.046436L829.79312 784.595883l-131.501598-131.486886c-4.413793-4.413793-13.829884-1.986207-21.142067 5.34069l-18.758619 18.758619c-7.356321 7.356321-9.710344 16.787125-5.340689 21.142067L784.595883 829.79312l-137.062977 137.07769c-4.531494 4.516781-2.265747 14.109424 5.046436 21.43632l18.773332 18.758619c7.356321 7.356321 16.904826 9.57793 21.421607 5.046436L829.79312 875.108059l131.501598 131.501598c4.413793 4.413793 13.829884 1.971494 21.142067-5.34069l18.773332-18.773331c7.356321-7.356321 9.695631-16.772412 5.340689-21.142067L875.108059 829.79312l137.121827-137.018839c4.531494-4.516781 2.265747-14.109424-5.046436-21.421607z" /></svg>