<?xml version="1.0" standalone="no"?><!DOCTYPE svg PUBLIC "-//W3C//DTD SVG 1.1//EN" "http://www.w3.org/Graphics/SVG/1.1/DTD/svg11.dtd"><svg class="icon" width="32px" height="32.00px" viewBox="0 0 1024 1024" version="1.1" xmlns="http://www.w3.org/2000/svg"><path d="M946 391.1H658.2V50c0-27.6-22.4-50-50-50h-194c-27.6 0-50 22.4-50 50v341.1H78c-27.6 0-50 22.4-50 50V974c0 27.6 22.4 50 50 50h868c27.6 0 50-22.4 50-50V441.1c0-27.6-22.4-50-50-50z m-541.8-10V50c0-5.5 4.5-10 10-10h194c5.5 0 10 4.5 10 10v341.1h-214v-10zM956 974c0 5.5-4.5 10-10 10H747.3V851.8c0-11-9-20-20-20s-20 9-20 20V984H531.2V808.7c0-11-9-20-20-20s-20 9-20 20V984h-176V851.8c0-11-9-20-20-20s-20 9-20 20V984H78c-5.5 0-10-4.5-10-10V727.6h888V974z m0-286.4H68V441.1c0-5.5 4.5-10 10-10h868c5.5 0 10 4.5 10 10v246.5z" fill="#BFC6E8" /><path d="M453.8 419.1s-222.5-5.9-216.6 57.3C243 539.6 344.7 513 344.7 513l109.1-93.9z m0 0M495.3 396.1s13.1-54.7-69.5-99.8c-82.7-45.1-101.3-50.1-112.5-32.2-11.2 17.9 16.1 93.7 16.1 93.7l165.9 38.3zM679.3 513s101.8 26.6 107.6-36.6c5.8-63.2-216.6-57.3-216.6-57.3l109 93.9z m-109.1-93.9M694.7 357.9s27.2-75.8 16.1-93.7c-11.2-17.9-29.8-12.9-112.5 32.2s-69.5 99.8-69.5 99.8l165.9-38.3z" fill="#C17CA7" /><path d="M488.6 449.1s-57.8 135.6-155.1 167.1c0 0-94.8-99.8-96.4-139.8 0 0 14.7 21.5 72.4-21.6 57.7-43 180.6-45.1 180.6-45.1l-1.5 39.4z m0 0" fill="#FFBBDC" /><path d="M479.1 436.2s-139.9 1.5-203.1-51.9c0 0 4.2-76.7 37.2-120.2 0 0 8.3 16.6 75.3 31.8 67 15.1 124.6 69.4 122.5 101.5-2 32-31.9 38.8-31.9 38.8z m0 0M533.9 409.8s122.8 2 180.6 45.1c57.7 43 72.4 21.6 72.4 21.6-1.6 40-96.4 139.8-96.4 139.8-97.3-31.6-155.1-167.1-155.1-167.1l-1.5-39.4z m1.5 39.3" fill="#FFBBDC" /><path d="M544.9 436.2s-30-6.9-32-38.9c-2.1-32.1 55.5-86.3 122.5-101.5 67-15.1 75.3-31.8 75.3-31.8 33 43.6 37.2 120.2 37.2 120.2-63.1 53.5-203 52-203 52z m0 0" fill="#FFBBDC" /><path d="M479.9 416.7S418.6 560.5 315.4 596c10.7 12.2 18.1 20.2 18.1 20.2 97.3-31.6 155.1-167.1 155.1-167.1l1.5-39.3s-3.6 0-9.8 0.2l-0.4 6.7z m0 0" fill="#E29AC7" /><path d="M478.1 412.2s-135.1 1.3-199.8-49.3c-1.9 12.9-2.3 21.4-2.3 21.4 63.3 53.2 203.1 51.9 203.1 51.9s30-6.9 32-38.9c0.2-5-0.7-10.1-2.6-14.7-6.5 24-30.4 29.6-30.4 29.6z m0 0M543.7 410c-6.2-0.1-9.8-0.2-9.8-0.2l1.5 39.3s57.8 135.6 155.1 167.1c0 0 7.4-7.9 18.1-20.2-103.2-35.5-164.5-179.3-164.5-179.3l-0.4-6.7z m0.4 6.7" fill="#E29AC7" /><path d="M545.9 412.2s-24-5.6-30.5-29.6c-1.9 4.7-2.8 9.7-2.6 14.7 2.1 32 32 38.9 32 38.9s139.8 1.3 203.1-51.9c0 0-0.4-8.4-2.3-21.4-64.6 50.6-199.7 49.3-199.7 49.3z m0 0" fill="#E29AC7" /><path d="M622.6 372.5c-3.5-16.1-16.7-29.4-32.5-34.3-15.8-4.9-33.5-1.7-47.5 7s-23.9 16.1-29.7 31.5c-5.9-15.4-15.7-22.8-29.7-31.5s-31.7-11.8-47.5-7c-15.8 4.9-29 18.1-32.5 34.3-3.2 14.8 1.9 30.5 10.6 42.9 8.7 12.4 20.9 21.9 33.2 30.7 18.8 13.4 45.3 27.1 65.9 37.6 20.6-10.4 47.1-24.2 65.9-37.6 12.4-8.8 24.5-18.3 33.2-30.7 8.7-12.4 13.7-28.1 10.6-42.9z" fill="#F4FF94" /><path d="M597.5 381c-2.7-12.4-12.9-22.7-25-26.4-12.2-3.8-25.8-1.3-36.6 5.4s-18.4 12.4-22.9 24.3c-4.5-11.9-12.1-17.6-22.9-24.3-10.8-6.7-24.5-9.1-36.6-5.4-12.2 3.8-22.4 14-25 26.4-2.4 11.4 1.4 23.5 8.2 33.1 6.7 9.6 16.1 16.9 25.6 23.7 14.5 10.3 34.9 20.9 50.8 29 15.9-8.1 36.3-18.7 50.8-29 9.5-6.8 18.9-14.1 25.6-23.7 6.5-9.6 10.4-21.7 8-33.1z" fill="#EADC7A" /></svg>