<?xml version="1.0" standalone="no"?><!DOCTYPE svg PUBLIC "-//W3C//DTD SVG 1.1//EN" "http://www.w3.org/Graphics/SVG/1.1/DTD/svg11.dtd"><svg class="icon" width="32px" height="32.00px" viewBox="0 0 1024 1024" version="1.1" xmlns="http://www.w3.org/2000/svg"><path fill="#000000" d="M591.592727 46.545455a46.545455 46.545455 0 0 1 46.545455 46.545454v49.338182a46.545455 46.545455 0 0 1-46.545455 46.545454h-186.181818a46.545455 46.545455 0 0 1-46.545454-46.545454V93.090909a46.545455 46.545455 0 0 1 46.545454-46.545454h186.181818z m0-46.545455h-186.181818a93.090909 93.090909 0 0 0-93.090909 93.090909v49.338182a93.090909 93.090909 0 0 0 93.090909 93.090909h186.181818a93.090909 93.090909 0 0 0 93.090909-93.090909V93.090909a93.090909 93.090909 0 0 0-93.090909-93.090909z"  /><path fill="#000000" d="M741.003636 127.069091H256a139.636364 139.636364 0 0 0-139.636364 139.636364h764.276364a139.636364 139.636364 0 0 0-139.636364-139.636364zM823.854545 346.298182l-78.196363 599.04a46.545455 46.545455 0 0 0 0 6.050909H237.847273a46.545455 46.545455 0 0 0 0-5.12L173.149091 346.298182h651.636364-0.93091z m0.93091-46.545455h-651.636364a46.545455 46.545455 0 0 0-46.545455 46.545455l65.163637 605.090909a46.545455 46.545455 0 0 0 46.545454 46.545454h507.345455a46.545455 46.545455 0 0 0 46.545454-46.545454l79.127273-605.090909a46.545455 46.545455 0 0 0-46.545454-46.545455z"  /><path fill="#000000" d="M366.312727 332.334545h46.545455v640h-46.545455zM579.956364 328.145455h46.545454V968.145455h-46.545454z"  /></svg>