<?xml version="1.0" standalone="no"?><!DOCTYPE svg PUBLIC "-//W3C//DTD SVG 1.1//EN" "http://www.w3.org/Graphics/SVG/1.1/DTD/svg11.dtd"><svg class="icon" width="32px" height="32.00px" viewBox="0 0 1024 1024" version="1.1" xmlns="http://www.w3.org/2000/svg"><path d="M0 0m0 0l1024 0q0 0 0 0l0 1024q0 0 0 0l-1024 0q0 0 0 0l0-1024q0 0 0 0Z" fill="#E8EFF8" /><path d="M139.636364 651.636364a23.272727 23.272727 0 0 1 23.272727-23.272728h395.636364a23.272727 23.272727 0 0 1 23.272727 23.272728v116.363636a23.272727 23.272727 0 0 1-23.272727 23.272727H162.909091a23.272727 23.272727 0 0 1-23.272727-23.272727v-116.363636z" fill="#247ADE" /><path d="M139.636364 442.181818a23.272727 23.272727 0 0 1 23.272727-23.272727h395.636364a23.272727 23.272727 0 0 1 23.272727 23.272727v116.363637a23.272727 23.272727 0 0 1-23.272727 23.272727H162.909091a23.272727 23.272727 0 0 1-23.272727-23.272727v-116.363637z" fill="#69CB91" /><path d="M861.090909 232.727273a23.272727 23.272727 0 0 0-23.272727-23.272728H162.909091a23.272727 23.272727 0 0 0-23.272727 23.272728v116.363636a23.272727 23.272727 0 0 0 23.272727 23.272727h674.909091a23.272727 23.272727 0 0 0 23.272727-23.272727v-116.363636z" fill="#A0BFF7" /><path d="M651.636364 651.636364h209.454545a23.272727 23.272727 0 1 1 0 46.545454h-209.454545a23.272727 23.272727 0 0 1 0-46.545454z" fill="#247ADE" /></svg>