<?xml version="1.0" standalone="no"?><!DOCTYPE svg PUBLIC "-//W3C//DTD SVG 1.1//EN" "http://www.w3.org/Graphics/SVG/1.1/DTD/svg11.dtd"><svg class="icon" width="32px" height="32.00px" viewBox="0 0 1024 1024" version="1.1" xmlns="http://www.w3.org/2000/svg"><path d="M944 704v256h-864v-256h864z m-512 32h-320v192l320-0.032V736z m480 0h-448v191.968l448 0.032v-192z" fill="#646E7F" /><path d="M704 384v256H0v-256h704zM288 416H32v192l256-0.032V416z m384 0H320v191.968L672 608v-192zM1024 496a144 144 0 1 1-288 0 144 144 0 0 1 288 0z m-32 0a112 112 0 1 0-224 0 112 112 0 0 0 224 0z m-48 16H896v48h-32V512h-48v-32H864v-48h32V480h48v32z" fill="#007EE6" /><path d="M944 64v256h-864V64h864z m-512 32h-320v192l320-0.032V96z m480 0h-448v191.968L912 288V96z" fill="#646E7F" /></svg>