<?xml version="1.0" standalone="no"?><!DOCTYPE svg PUBLIC "-//W3C//DTD SVG 1.1//EN" "http://www.w3.org/Graphics/SVG/1.1/DTD/svg11.dtd"><svg class="icon" width="32px" height="32.00px" viewBox="0 0 1024 1024" version="1.1" xmlns="http://www.w3.org/2000/svg"><path d="M512 1024c-249.6 0-448-198.4-448-448 0-204.8 134.4-371.2 320-428.8l0 70.4C236.8 268.8 128 409.6 128 576c0 211.2 172.8 384 384 384s384-172.8 384-384c0-166.4-108.8-307.2-256-358.4L640 147.2c185.6 57.6 320 224 320 428.8C960 825.6 761.6 1024 512 1024zM544 512l-64 0C460.8 512 448 499.2 448 480l0-448C448 12.8 460.8 0 480 0l64 0C563.2 0 576 12.8 576 32l0 448C576 499.2 563.2 512 544 512z" fill="#AD3B3B" /></svg>