<?xml version="1.0" standalone="no"?><!DOCTYPE svg PUBLIC "-//W3C//DTD SVG 1.1//EN" "http://www.w3.org/Graphics/SVG/1.1/DTD/svg11.dtd"><svg class="icon" width="32px" height="32.00px" viewBox="0 0 1024 1024" version="1.1" xmlns="http://www.w3.org/2000/svg"><path d="M372.896 236.256q-64.16 27.136-113.632 76.64-49.504 49.472-76.64 113.6-28.064 66.4-28.064 139.136 0 72.768 28.064 139.136 27.136 64.128 76.64 113.632 49.472 49.504 113.6 76.64 66.4 28.064 139.168 28.064 72.736 0 139.104-28.064 64.16-27.136 113.632-76.64 49.504-49.504 76.64-113.6 28.064-66.4 28.064-139.168 0-72.736-28.064-139.104-27.136-64.16-76.64-113.632-49.472-49.504-113.6-76.64l37.376-88.416q81.376 34.432 144.128 97.152 62.72 62.72 97.152 144.128 35.648 84.288 35.648 176.512t-35.648 176.544q-34.432 81.376-97.152 144.128-62.72 62.72-144.128 97.152-84.288 35.648-176.512 35.648-92.256 0-176.544-35.648-81.376-34.432-144.128-97.152-62.72-62.72-97.152-144.128-35.648-84.32-35.648-176.544 0-92.224 35.648-176.512Q128.64 307.744 191.36 244.992q62.72-62.72 144.128-97.152l37.408 88.416z" fill="#000000" /><path d="M562.688 460c0 28.672-22.72 51.968-50.688 51.968-27.936 0-50.624-23.264-50.624-51.968V52C461.376 23.264 484.064 0 512 0c28 0 50.688 23.264 50.688 52v408z" fill="#FFA115" /></svg>