<?xml version="1.0" standalone="no"?><!DOCTYPE svg PUBLIC "-//W3C//DTD SVG 1.1//EN" "http://www.w3.org/Graphics/SVG/1.1/DTD/svg11.dtd"><svg class="icon" width="32px" height="29.02px" viewBox="0 0 1129 1024" version="1.1" xmlns="http://www.w3.org/2000/svg"><path d="M1089.870332 188.233218H39.528976a39.528976 39.528976 0 0 0-39.528976 37.646644v759.521034a38.58781 38.58781 0 0 0 39.528976 38.58781h1050.341356a38.58781 38.58781 0 0 0 39.528976-38.58781V225.879862a39.528976 39.528976 0 0 0-39.528976-37.646644z m-39.528975 759.521035H79.057952V265.408837h971.283405z" fill="#4E5155" /><path d="M993.871391 83.763782H135.527917a32.940813 32.940813 0 0 0-32.940813 31.999647v109.175267a32.940813 32.940813 0 0 0 32.940813 32.940813h858.343474a32.940813 32.940813 0 0 0 32.940813-32.940813V115.763429a32.940813 32.940813 0 0 0-32.940813-31.999647z m-31.999647 109.175266H167.527564v-45.175972h794.34418z" fill="#4E5155" /><path d="M905.401779 0H223.997529a25.411484 25.411484 0 0 0-25.411484 25.411484v83.763782a25.411484 25.411484 0 0 0 25.411484 25.411485h681.40425a25.411484 25.411484 0 0 0 25.411484-25.411485V25.411484A25.411484 25.411484 0 0 0 905.401779 0z m-26.352651 82.822616H250.35018V50.822969h628.698948z" fill="#4E5155" /><path d="M396.230924 808.461671a33.881979 33.881979 0 0 1-34.823145-34.823145 35.764311 35.764311 0 0 1 9.41166-20.705654l336.937461-341.643291a35.764311 35.764311 0 0 1 49.881803 0 33.881979 33.881979 0 0 1 0 46.117139L421.642408 798.108844a36.705478 36.705478 0 0 1-25.411484 10.352827z" fill="#4E5155" /><path d="M733.168384 809.402837a36.705478 36.705478 0 0 1-25.411484-10.352827L370.819439 462.11255a35.764311 35.764311 0 0 1 0-49.881803 34.823145 34.823145 0 0 1 47.058305 0L757.638703 752.932872a35.764311 35.764311 0 0 1 0 50.822969 33.881979 33.881979 0 0 1-24.470319 10.352827z" fill="#4E5155" /></svg>