<?xml version="1.0" standalone="no"?><!DOCTYPE svg PUBLIC "-//W3C//DTD SVG 1.1//EN" "http://www.w3.org/Graphics/SVG/1.1/DTD/svg11.dtd"><svg class="icon" width="32px" height="32.00px" viewBox="0 0 1024 1024" version="1.1" xmlns="http://www.w3.org/2000/svg"><path fill="#000000" d="M512 64c247.424 0 448 200.576 448 448S759.424 960 512 960 64 759.424 64 512 264.576 64 512 64z m0 64c-212.077 0-384 171.923-384 384s171.923 384 384 384 384-171.923 384-384-171.923-384-384-384z m124.396 214.368c12.492-12.49 32.744-12.49 45.236 0 12.49 12.492 12.49 32.744 0 45.236L557.235 512l124.397 124.396c12.49 12.492 12.49 32.744 0 45.236-12.492 12.49-32.744 12.49-45.236 0L512 557.235 387.604 681.632c-12.492 12.49-32.744 12.49-45.236 0-12.49-12.492-12.49-32.744 0-45.236L466.765 512 342.368 387.604c-12.49-12.492-12.49-32.744 0-45.236 12.492-12.49 32.744-12.49 45.236 0L512 466.765z"  /></svg>