<?xml version="1.0" standalone="no"?><!DOCTYPE svg PUBLIC "-//W3C//DTD SVG 1.1//EN" "http://www.w3.org/Graphics/SVG/1.1/DTD/svg11.dtd"><svg class="icon" width="32px" height="32.00px" viewBox="0 0 1024 1024" version="1.1" xmlns="http://www.w3.org/2000/svg"><path fill="#000000" d="M510.5152 953.088c-217.7536 0-394.8544-177.152-394.8544-394.8544 0-165.7344 104.6528-315.0336 260.4544-371.4048 15.9232-5.7856 33.5872 2.4576 39.3216 18.432a30.64832 30.64832 0 0 1-18.432 39.3216c-131.5328 47.616-219.9552 173.6704-219.9552 313.6512 0 183.8592 149.5552 333.4144 333.4144 333.4144s333.4144-149.5552 333.4144-333.4144c0-138.6496-87.2448-264.2944-217.1392-312.6272a30.70464 30.70464 0 0 1-18.0736-39.5264 30.70464 30.70464 0 0 1 39.5264-18.0736c153.8048 57.2416 257.1776 206.0288 257.1776 370.176 0 217.7536-177.152 394.9056-394.8544 394.9056z"  /><path fill="#000000" d="M511.488 574.464c-16.9472 0-30.72-13.7728-30.72-30.72V108.6976c0-16.9472 13.7728-30.72 30.72-30.72s30.72 13.7728 30.72 30.72v435.0464c0 16.9472-13.7728 30.72-30.72 30.72z"  /></svg>