<?xml version="1.0" standalone="no"?><!DOCTYPE svg PUBLIC "-//W3C//DTD SVG 1.1//EN" "http://www.w3.org/Graphics/SVG/1.1/DTD/svg11.dtd"><svg class="icon" width="32px" height="32.00px" viewBox="0 0 1024 1024" version="1.1" xmlns="http://www.w3.org/2000/svg"><path d="M644.650667 173.013333l4.864 2.005334 207.786666 101.973333 2.090667 1.109333a42.752 42.752 0 0 1 17.621333 18.858667l0.554667 1.194667a41.557333 41.557333 0 0 1 3.584 16.725333v495.829333a42.410667 42.410667 0 0 1-0.256 4.736l0.256-4.778666a42.538667 42.538667 0 0 1-4.352 18.773333l-1.066667 2.048a42.666667 42.666667 0 0 1-1.322666 2.218667l2.389333-4.266667a42.666667 42.666667 0 0 1-7.338667 10.624l-0.810666 0.768-0.426667 0.426667a42.368 42.368 0 0 1-29.312 12.074666h-0.426667a42.197333 42.197333 0 0 1-14.208-2.432l-1.706666-0.64a42.453333 42.453333 0 0 1-3.157334-1.408l-189.909333-93.226666-219.392 94.250666a42.666667 42.666667 0 0 1-30.72 1.109334l-4.906667-2.005334-207.786666-101.973333a42.666667 42.666667 0 0 1-23.893334-38.4V213.290667a42.666667 42.666667 0 0 1 56.874667-40.192l4.608 1.962666L394.453333 268.373333l219.434667-94.208a42.666667 42.666667 0 0 1 30.72-1.109333z m-56.576 105.045334l-152.149334 65.365333v402.474667l152.149334-65.322667V278.058667z m85.333333 3.754666v400.298667l122.410667 60.074667V341.930667l-122.453334-60.16zM228.181333 281.770667v400.341333l122.410667 60.074667V341.888l-122.453333-60.16z" fill="#000000" /></svg>