<?xml version="1.0" standalone="no"?><!DOCTYPE svg PUBLIC "-//W3C//DTD SVG 1.1//EN" "http://www.w3.org/Graphics/SVG/1.1/DTD/svg11.dtd"><svg class="icon" width="32px" height="32.00px" viewBox="0 0 1024 1024" version="1.1" xmlns="http://www.w3.org/2000/svg"><path d="M85.333333 128a42.666667 42.666667 0 0 1 42.666667-42.666667h298.666667a42.666667 42.666667 0 0 1 42.666666 42.666667v298.666667a42.666667 42.666667 0 0 1-42.666666 42.666666H128a42.666667 42.666667 0 0 1-42.666667-42.666666V128z m85.333334 256h213.333333V170.666667H170.666667v213.333333zM85.333333 597.333333a42.666667 42.666667 0 0 1 42.666667-42.666666h298.666667a42.666667 42.666667 0 0 1 42.666666 42.666666v298.666667a42.666667 42.666667 0 0 1-42.666666 42.666667H128a42.666667 42.666667 0 0 1-42.666667-42.666667v-298.666667z m85.333334 256h213.333333v-213.333333H170.666667v213.333333zM597.333333 85.333333a42.666667 42.666667 0 0 0-42.666666 42.666667v298.666667a42.666667 42.666667 0 0 0 42.666666 42.666666h298.666667a42.666667 42.666667 0 0 0 42.666667-42.666666V128a42.666667 42.666667 0 0 0-42.666667-42.666667h-298.666667z m42.666667 85.333334h213.333333v213.333333h-213.333333V170.666667zM554.666667 597.333333a42.666667 42.666667 0 0 1 42.666666-42.666666h298.666667a42.666667 42.666667 0 0 1 42.666667 42.666666v298.666667a42.666667 42.666667 0 0 1-42.666667 42.666667h-298.666667a42.666667 42.666667 0 0 1-42.666666-42.666667v-298.666667z m85.333333 256h213.333333v-213.333333h-213.333333v213.333333z" /></svg>