<?xml version="1.0" standalone="no"?><!DOCTYPE svg PUBLIC "-//W3C//DTD SVG 1.1//EN" "http://www.w3.org/Graphics/SVG/1.1/DTD/svg11.dtd"><svg class="icon" width="32px" height="32.00px" viewBox="0 0 1024 1024" version="1.1" xmlns="http://www.w3.org/2000/svg"><path d="M922.7 129.3H101.9c-20.8 0-37.7 16.9-37.7 37.7v608.6c0 20.8 16.9 37.7 37.7 37.7h311.9l68 95.1c14.9 20.9 46 20.9 61 0l68-95.1h311.9c20.8 0 37.7-16.9 37.7-37.7V166.9c0-20.8-16.9-37.6-37.7-37.6zM499 503.9c-1.4 13.4-4.7 25.7-9.7 37-5 11.3-12 21.1-20.8 29.5-8.9 8.4-19.6 14.9-32.3 19.6-12.7 4.7-27.4 7-44.2 7-18.4 0-34.9-3.1-49.4-9.3s-26.7-15.1-36.6-26.8c-9.9-11.6-17.5-25.7-22.6-42.4-5.1-16.7-7.7-35.3-7.7-55.9 0-21.1 2.8-40 8.4-56.8 5.6-16.8 13.6-30.9 23.9-42.6 10.3-11.6 22.6-20.5 37-26.6 14.4-6.1 30.2-9.2 47.4-9.2 16 0 29.9 2 41.7 6.1 11.7 4.1 21.7 9.9 30 17.4s14.8 16.6 19.8 27.1c4.9 10.5 8.6 22.3 11 35.2l-42.8 6.1c-1.9-8.6-4.3-16.3-7.2-23-2.9-6.7-6.6-12.4-11.3-17.1s-10.4-8.3-17.1-10.8-14.7-3.8-24.1-3.8c-11.5 0-21.7 2.3-30.5 6.8-8.9 4.6-16.3 11.1-22.5 19.6-6.1 8.5-10.7 18.7-13.8 30.7s-4.7 25.4-4.7 40.2c0 15.1 1.6 28.6 4.9 40.6 3.2 12 8 22.2 14.2 30.7s13.7 15 22.5 19.4 18.7 6.6 30 6.6c10.1 0 18.6-1.3 25.7-4 7.1-2.6 13-6.3 17.8-11.1s8.6-10.6 11.3-17.4c2.7-6.8 4.7-14.6 5.9-23.2H499v0.4z m277.3 86.5h-40.2L617.9 405.8v184.6h-42V333.9h40.2l117.8 185.4V333.9h42.4v256.5z"  /></svg>