<?xml version="1.0" standalone="no"?><!DOCTYPE svg PUBLIC "-//W3C//DTD SVG 1.1//EN" "http://www.w3.org/Graphics/SVG/1.1/DTD/svg11.dtd"><svg class="icon" width="32px" height="32.00px" viewBox="0 0 1024 1024" version="1.1" xmlns="http://www.w3.org/2000/svg"><path fill="#000000" d="M600.792279 956.698175l-565.581336 0L35.210943 35.18843l921.509744 0L956.720687 493.315452c0 9.717316 7.877411 17.594727 17.594727 17.594727 9.717316 0 17.594727-7.877411 17.594727-17.594727L991.910141 17.594727 991.910141 0l-17.594727 0L17.616216 0 0.021489 0l0 17.594727 0 956.698175 0 17.594727 17.594727 0 583.176063 0c9.717316 0 17.594727-7.877411 17.594727-17.594727C618.385982 964.575586 610.508571 956.698175 600.792279 956.698175z"  /><path fill="#000000" d="M1016.916674 929.187611 902.631792 814.103526c31.444153-37.064151 50.42239-85.036745 50.42239-137.450489 0-117.415177-95.183849-212.600049-212.600049-212.600049s-212.600049 95.183849-212.600049 212.600049S623.038956 889.253086 740.454132 889.253086c52.333926 0 100.241029-18.920932 137.281643-50.28015l114.211205 115.010407c6.846942 6.895037 17.987676 6.933923 24.88169 0.086981C1023.724731 947.222359 1023.763616 936.082648 1016.916674 929.187611zM740.454132 854.063633c-97.981568 0-177.410596-79.429027-177.410596-177.410596s79.429027-177.410596 177.410596-177.410596 177.410596 79.429027 177.410596 177.410596S838.435701 854.063633 740.454132 854.063633z"  /><path fill="#000000" d="M601.554642 405.287583l12.390191 10.875698 11.657504-11.657504 169.812547-169.812547 26.349111-26.349111-37.087687-3.604084-137.03298-13.317307c-9.671267-0.940418-18.274202 6.138814-19.213597 15.810081-0.940418 9.671267 6.138814 18.274202 15.810081 19.213597l99.945293 9.713222L612.378152 367.965559 416.800801 196.301851l-11.413957-10.018168-11.57871 9.827833L197.569728 362.690416c-7.407714 6.288217-8.315386 17.391089-2.02717 24.799826 6.288217 7.407714 17.391089 8.315386 24.799826 2.02717l184.66072-156.750043L601.554642 405.287583z"  /><path fill="#000000" d="M368.405581 669.688415 177.065741 669.688415c-9.717316 0-17.594727 7.877411-17.594727 17.594727 0 9.717316 7.877411 17.594727 17.594727 17.594727l191.33984 0c9.717316 0 17.594727-7.877411 17.594727-17.594727C385.999284 677.565826 378.122897 669.688415 368.405581 669.688415z"  /><path fill="#000000" d="M368.405581 542.129204 177.065741 542.129204c-9.717316 0-17.594727 7.877411-17.594727 17.594727 0 9.717316 7.877411 17.594727 17.594727 17.594727l191.33984 0c9.717316 0 17.594727-7.877411 17.594727-17.594727C385.999284 550.006616 378.122897 542.129204 368.405581 542.129204z"  /><path fill="#000000" d="M368.405581 797.248649 177.065741 797.248649c-9.717316 0-17.594727 7.877411-17.594727 17.594727s7.877411 17.594727 17.594727 17.594727l191.33984 0c9.717316 0 17.594727-7.877411 17.594727-17.594727S378.122897 797.248649 368.405581 797.248649z"  /></svg>