<?xml version="1.0" standalone="no"?><!DOCTYPE svg PUBLIC "-//W3C//DTD SVG 1.1//EN" "http://www.w3.org/Graphics/SVG/1.1/DTD/svg11.dtd"><svg class="icon" width="32px" height="32.00px" viewBox="0 0 1024 1024" version="1.1" xmlns="http://www.w3.org/2000/svg"><path fill="#000000" d="M752.128 122.88c-9.728-5.632-22.528-2.048-28.16 7.68-5.632 9.728-2.048 22.528 7.68 28.16 136.192 78.336 220.672 224.768 220.672 381.44 0 242.688-197.632 440.32-440.32 440.32s-440.32-197.632-440.32-440.32C71.68 383.488 156.16 237.056 292.352 158.72c9.728-5.632 13.312-18.432 7.68-28.16s-17.92-13.312-28.16-7.68C122.88 208.896 30.72 368.64 30.72 540.16c0 265.216 216.064 481.28 481.28 481.28s481.28-216.064 481.28-481.28c0-171.52-92.16-331.264-241.152-417.28zM512 514.56c11.264 0 20.48-9.216 20.48-20.48v-471.04c0-11.264-9.216-20.48-20.48-20.48s-20.48 9.216-20.48 20.48v471.04c0 11.264 9.216 20.48 20.48 20.48z" /></svg>