<?xml version="1.0" standalone="no"?><!DOCTYPE svg PUBLIC "-//W3C//DTD SVG 1.1//EN" "http://www.w3.org/Graphics/SVG/1.1/DTD/svg11.dtd"><svg class="icon" width="32px" height="32.00px" viewBox="0 0 1024 1024" version="1.1" xmlns="http://www.w3.org/2000/svg"><path fill="#000000" d="M973.236849 450.006064c-9.705036 0-17.573237 7.868201-17.573237 17.573237l0 521.275247L35.270295 988.854549 35.270295 68.459185l564.896744 0c9.705036 0 17.573237-7.868201 17.573237-17.573237 0-9.705036-7.868201-17.573237-17.573237-17.573237L17.697057 33.31271 0.12382 33.31271l0 17.573237 0 955.540815 0 17.573237 17.573237 0L973.236849 1024l17.573237 0 0-17.573237L990.810087 467.579301C990.810087 457.873242 982.942909 450.006064 973.236849 450.006064zM1016.510422 126.234029 872.256994 10.860349c-7.573489-6.056949-18.622126-4.834098-24.688285 2.733251L634.57571 279.317567c-1.670036 2.083451-2.842745 4.519943-3.430122 7.124258l-38.934754 172.627662c-2.920516 12.94994 9.021467 24.338315 21.818935 20.805862l177.323615-48.947805c3.572362-0.986467 6.742565-3.077082 9.055237-5.973038l218.857567-274.031167C1025.319042 143.344732 1024.085958 132.293025 1016.510422 126.234029zM776.504186 398.566508l-143.555533 39.626509 31.589462-140.058896L864.013239 49.272193l116.829845 93.440136L776.504186 398.566508zM416.399665 675.296133l-11.400654-10.006911-11.564383 9.816576L197.432605 841.483106c-7.399527 6.281053-8.306176 17.370623-2.025123 24.769127 6.281053 7.399527 17.370623 8.305153 24.769127 2.025123l184.437639-156.560732 196.315154 172.312484 12.374842 10.862395 11.643178-11.643178 169.606863-169.606863 26.316366-26.316366-37.042661-3.599991-136.867204-13.301957c-9.660011-0.938372-18.251689 6.130627-19.190061 15.790638-0.938372 9.660011 6.130627 18.251689 15.790638 19.191084l99.824543 9.701966L611.738585 846.753133 416.399665 675.296133zM176.954201 418.824901l191.107549 0c9.705036 0 17.573237-7.868201 17.573237-17.573237 0-9.705036-7.868201-17.573237-17.573237-17.573237L176.954201 383.678426c-9.705036 0-17.573237 7.868201-17.573237 17.573237C159.380964 410.956699 167.248142 418.824901 176.954201 418.824901zM176.954201 291.419186l191.107549 0c9.705036 0 17.573237-7.868201 17.573237-17.573237 0-9.705036-7.868201-17.573237-17.573237-17.573237L176.954201 256.272711c-9.705036 0-17.573237 7.868201-17.573237 17.573237C159.380964 283.550984 167.248142 291.419186 176.954201 291.419186zM176.954201 546.229592l191.107549 0c9.705036 0 17.573237-7.868201 17.573237-17.573237 0-9.705036-7.868201-17.573237-17.573237-17.573237L176.954201 511.083118c-9.705036 0-17.573237 7.868201-17.573237 17.573237C159.380964 538.362414 167.248142 546.229592 176.954201 546.229592z"  /></svg>