<?xml version="1.0" standalone="no"?><!DOCTYPE svg PUBLIC "-//W3C//DTD SVG 1.1//EN" "http://www.w3.org/Graphics/SVG/1.1/DTD/svg11.dtd"><svg class="icon" width="32px" height="32.00px" viewBox="0 0 1024 1024" version="1.1" xmlns="http://www.w3.org/2000/svg"><path d="M768 160a96 96 0 1 1-42.464 182.112l-103.872 103.84c11.648 19.264 18.336 41.888 18.336 66.048 0 15.648-2.816 30.656-7.936 44.48l81.504 68.416a96 96 0 1 1-37.696 51.936l-80.64-67.616c-22.368 19.2-51.456 30.784-83.232 30.784-24.16 0-46.72-6.72-66.016-18.304l-48.32 48.288A128 128 0 1 1 352 625.12L401.12 576A127.424 127.424 0 0 1 384 512c0-24.288 6.752-46.976 18.496-66.304l-49.248-47.552a128 128 0 1 1 45.152-45.344l49.92 48.128A127.424 127.424 0 0 1 512 384c23.328 0 45.184 6.24 64 17.12l104.832-104.832A96 96 0 0 1 768 160zM288 672a64 64 0 1 0 0 128 64 64 0 0 0 0-128z m480 0a32 32 0 1 0 0 64 32 32 0 0 0 0-64z m-256-224a64 64 0 1 0 0 128 64 64 0 0 0 0-128zM288 224a64 64 0 1 0 0 128 64 64 0 0 0 0-128z m480 0a32 32 0 1 0 0 64 32 32 0 0 0 0-64z" fill="#686C78" /></svg>