<?xml version="1.0" standalone="no"?><!DOCTYPE svg PUBLIC "-//W3C//DTD SVG 1.1//EN" "http://www.w3.org/Graphics/SVG/1.1/DTD/svg11.dtd"><svg class="icon" width="32px" height="32.00px" viewBox="0 0 1024 1024" version="1.1" xmlns="http://www.w3.org/2000/svg"><path fill="#000000" d="M499.2 332.8v-128c0-21.333333-12.8-34.133333-29.866667-34.133333-8.533333 0-12.8 0-17.066666 4.266666L136.533333 396.8c-12.8 8.533333-17.066667 29.866667-8.533333 42.666667l8.533333 8.533333 315.733334 221.866667c12.8 8.533333 34.133333 4.266667 42.666666-8.533334 4.266667-4.266667 4.266667-12.8 4.266667-17.066666v-81.066667c0-17.066667 12.8-29.866667 29.866667-29.866667 174.933333 17.066667 320 140.8 358.4 311.466667 46.933333-213.333333-85.333333-430.933333-302.933334-477.866667-17.066667-4.266667-38.4-8.533333-59.733333-8.533333-12.8 0-25.6-12.8-25.6-25.6z" /></svg>