<?xml version="1.0" standalone="no"?><!DOCTYPE svg PUBLIC "-//W3C//DTD SVG 1.1//EN" "http://www.w3.org/Graphics/SVG/1.1/DTD/svg11.dtd"><svg class="icon" width="32px" height="32.00px" viewBox="0 0 1024 1024" version="1.1" xmlns="http://www.w3.org/2000/svg"><path fill="#000000" d="M922.7 129.3H101.9c-20.8 0-37.7 16.9-37.7 37.7v608.6c0 20.8 16.9 37.7 37.7 37.7h311.9l68 95.1c14.9 20.9 46 20.9 61 0l68-95.1h311.9c20.8 0 37.7-16.9 37.7-37.7V166.9c0-20.8-16.9-37.6-37.7-37.6zM456.6 590.5H284.2V333.9h170.6v37.4H327.6v68.3h120v37.7h-120v75.8h134l-5 37.4z m282.7-0.1h-40.2L580.9 405.8v184.6h-42V333.9h40.2l117.8 185.4V333.9h42.4v256.5z" /></svg>