<?xml version="1.0" standalone="no"?><!DOCTYPE svg PUBLIC "-//W3C//DTD SVG 1.1//EN" "http://www.w3.org/Graphics/SVG/1.1/DTD/svg11.dtd"><svg class="icon" width="32px" height="32.00px" viewBox="0 0 1024 1024" version="1.1" xmlns="http://www.w3.org/2000/svg"><path d="M106.688 213.248a32 32 0 0 1 32-32h522.688a32 32 0 0 1 0 64H138.688a32 32 0 0 1-32-32z" fill="#4B465C" /><path d="M106.688 213.248a32 32 0 0 1 32-32h522.688a32 32 0 0 1 0 64H138.688a32 32 0 0 1-32-32z" fill="#FFFFFF" fill-opacity=".2" /><path d="M554.688 456a32 32 0 0 1 32-32h298.688a32 32 0 0 1 0 64H586.688a32 32 0 0 1-32-32z" fill="#4B465C" /><path d="M554.688 456a32 32 0 0 1 32-32h298.688a32 32 0 0 1 0 64H586.688a32 32 0 0 1-32-32z" fill="#FFFFFF" fill-opacity=".2" /><path d="M400 181.248a32 32 0 0 1 32 32v634.688a32 32 0 0 1-64 0V213.248a32 32 0 0 1 32-32z" fill="#4B465C" /><path d="M400 181.248a32 32 0 0 1 32 32v634.688a32 32 0 0 1-64 0V213.248a32 32 0 0 1 32-32z" fill="#FFFFFF" fill-opacity=".2" /><path d="M736 424a32 32 0 0 1 32 32v392a32 32 0 0 1-64 0V456a32 32 0 0 1 32-32z" fill="#4B465C" /><path d="M736 424a32 32 0 0 1 32 32v392a32 32 0 0 1-64 0V456a32 32 0 0 1 32-32z" fill="#FFFFFF" fill-opacity=".2" /></svg>