<?xml version="1.0" standalone="no"?><!DOCTYPE svg PUBLIC "-//W3C//DTD SVG 1.1//EN" "http://www.w3.org/Graphics/SVG/1.1/DTD/svg11.dtd"><svg class="icon" width="32px" height="32.00px" viewBox="0 0 1024 1024" version="1.1" xmlns="http://www.w3.org/2000/svg"><path d="M929.476923 854.646154l-212.676923-200.861539c47.261538-59.076923 78.769231-137.846154 78.769231-220.553846 0-196.923077-157.538462-354.461538-354.461539-354.461538s-354.461538 157.538462-354.461538 354.461538 157.538462 354.461538 354.461538 354.461539c90.584615 0 173.292308-35.446154 236.307693-90.584616l212.676923 200.861539c3.938462 3.938462 11.815385 7.876923 19.692307 7.876923s15.753846-3.938462 19.692308-7.876923c11.815385-11.815385 11.815385-31.507692 0-43.323077z m-488.369231-126.030769c-161.476923 0-295.384615-133.907692-295.384615-295.384616s133.907692-295.384615 295.384615-295.384615 295.384615 133.907692 295.384616 295.384615-133.907692 295.384615-295.384616 295.384616z" fill="#1A1311" /><path d="M598.646154 401.723077h-129.969231V271.753846c0-15.753846-11.815385-31.507692-31.507692-31.507692s-31.507692 11.815385-31.507693 31.507692v129.969231H279.630769c-15.753846 0-31.507692 11.815385-31.507692 31.507692s11.815385 31.507692 31.507692 31.507693h129.969231V590.769231c0 15.753846 11.815385 31.507692 31.507692 31.507692s31.507692-11.815385 31.507693-31.507692v-129.969231h129.96923c15.753846 0 31.507692-11.815385 31.507693-31.507692s-15.753846-27.569231-35.446154-27.569231z" fill="#1A1311" /></svg>