<?xml version="1.0" standalone="no"?><!DOCTYPE svg PUBLIC "-//W3C//DTD SVG 1.1//EN" "http://www.w3.org/Graphics/SVG/1.1/DTD/svg11.dtd"><svg class="icon" width="32px" height="32.00px" viewBox="0 0 1024 1024" version="1.1" xmlns="http://www.w3.org/2000/svg"><path d="M480.653061 867.265306c-213.159184 0-386.612245-173.453061-386.612245-386.612245s173.453061-386.612245 386.612245-386.612245 386.612245 173.453061 386.612245 386.612245-173.453061 386.612245-386.612245 386.612245z m0-731.428571c-190.171429 0-344.816327 154.644898-344.816326 344.816326s154.644898 344.816327 344.816326 344.816327 344.816327-154.644898 344.816327-344.816327-154.644898-344.816327-344.816327-344.816326z" fill="#333333" /><path d="M741.877551 501.55102c-11.493878 0-20.897959-9.404082-20.897959-20.897959 0-132.702041-107.62449-240.326531-240.326531-240.32653-11.493878 0-20.897959-9.404082-20.897959-20.89796s9.404082-20.897959 20.897959-20.897959c155.689796 0 282.122449 126.432653 282.122449 282.122449 0 11.493878-9.404082 20.897959-20.897959 20.897959zM909.061224 929.959184c-5.22449 0-10.44898-2.089796-14.628571-6.269388l-170.318367-170.318367c-8.359184-8.359184-8.359184-21.420408 0-29.779592 8.359184-8.359184 21.420408-8.359184 29.779592 0l170.318367 170.318367c8.359184 8.359184 8.359184 21.420408 0 29.779592-4.702041 4.179592-9.926531 6.269388-15.151021 6.269388z" fill="#333333" /></svg>