<?xml version="1.0" standalone="no"?><!DOCTYPE svg PUBLIC "-//W3C//DTD SVG 1.1//EN" "http://www.w3.org/Graphics/SVG/1.1/DTD/svg11.dtd"><svg class="icon" width="32px" height="32.00px" viewBox="0 0 1024 1024" version="1.1" xmlns="http://www.w3.org/2000/svg"><path d="M825.856 65.344H212.544a137.856 137.856 0 0 0-137.728 137.728v613.376c0 75.968 61.76 137.728 137.728 137.728h613.312a137.92 137.92 0 0 0 137.728-137.728V203.136a137.856 137.856 0 0 0-137.728-137.792z m105.792 751.168c0 58.304-47.424 105.728-105.728 105.728H212.544a105.856 105.856 0 0 1-105.728-105.728V203.136c0-58.304 47.424-105.728 105.728-105.728h613.312c58.304 0 105.728 47.424 105.728 105.728v613.376z" fill="#070001" /><path d="M678.4 377.6a17.6 17.6 0 0 0-22.656 0 13.056 13.056 0 0 0 0 20.096l106.496 94.592H273.024L382.72 394.816a13.056 13.056 0 0 0 0-20.096 17.6 17.6 0 0 0-22.656 0L220.992 498.304a13.056 13.056 0 0 0 0 20.096l139.136 123.52c6.272 5.504 16.384 5.504 22.656 0s6.272-14.528 0-20.032L272.896 524.288h496l-113.152 100.48c-6.272 5.568-6.272 14.592 0 20.032s16.384 5.504 22.656 0l139.136-123.584a13.056 13.056 0 0 0 0-20.096L678.4 377.6z" fill="#070001" /></svg>