<?xml version="1.0" standalone="no"?><!DOCTYPE svg PUBLIC "-//W3C//DTD SVG 1.1//EN" "http://www.w3.org/Graphics/SVG/1.1/DTD/svg11.dtd"><svg class="icon" width="32px" height="32.00px" viewBox="0 0 1024 1024" version="1.1" xmlns="http://www.w3.org/2000/svg"><path d="M492.12 284.71m20 0l0 0q20 0 20 20l0 452.9q0 20-20 20l0 0q-20 0-20-20l0-452.9q0-20 20-20ZM164 799.2a60 60 0 1 1-60 60 60.07 60.07 0 0 1 60-60m0-40a100 100 0 1 0 100 100 100 100 0 0 0-100-100zM512.12 799.2a60 60 0 1 1-60 60 60.07 60.07 0 0 1 60-60m0-40a100 100 0 1 0 100 100 100 100 0 0 0-100-100zM860 799.2a60 60 0 1 1-60 60 60.07 60.07 0 0 1 60-60m0-40a100 100 0 1 0 100 100 100 100 0 0 0-100-100zM647.12 156.86a20.26 20.26 0 0 1 20 20v84a20.26 20.26 0 0 1-20 20h-270a20.27 20.27 0 0 1-20-20v-84a20.27 20.27 0 0 1 20-20h270m0-40h-270a60.18 60.18 0 0 0-60 60v84a60.18 60.18 0 0 0 60 60h270a60.18 60.18 0 0 0 60-60v-84a60.18 60.18 0 0 0-60-60zM870.84 777.61a20 20 0 0 1-20-20c0-200.49-170.12-290.23-338.71-290.23s-338.72 89.74-338.72 290.23a20 20 0 0 1-40 0c0-100.4 38.88-185.1 112.45-244.92 34.12-27.76 74.7-49.21 120.59-63.76 45.1-14.3 94.11-21.55 145.68-21.55s100.57 7.25 145.67 21.55c45.89 14.55 86.46 36 120.59 63.76C852 572.51 890.84 657.21 890.84 757.61a20 20 0 0 1-20 20z" /></svg>