<?xml version="1.0" standalone="no"?><!DOCTYPE svg PUBLIC "-//W3C//DTD SVG 1.1//EN" "http://www.w3.org/Graphics/SVG/1.1/DTD/svg11.dtd"><svg class="icon" width="32px" height="32.00px" viewBox="0 0 1024 1024" version="1.1" xmlns="http://www.w3.org/2000/svg"><path d="M872.5 960H512v-64h360.5c12.9 0 23.5-10.5 23.5-23.5v-721c0-12.9-10.5-23.5-23.5-23.5h-721c-12.9 0-23.5 10.5-23.5 23.5V512H64V151.5c0-48.2 39.2-87.5 87.5-87.5h721.1c48.2 0 87.5 39.2 87.5 87.5v721.1c-0.1 48.2-39.3 87.4-87.6 87.4z" fill="#727272" /><path d="M388 960h-64v-64h64v64z m-128 0h-64v-64h64v64z m-138.6-5.3c-32.5-11.9-54.9-41.9-57.2-76.4l63.9-4.2c0.6 9.2 6.6 17.3 15.3 20.5l-22 60.1z m342.9-2.2l-26-58.5c8.5-3.8 14-12.2 14-21.5v-50h64v50c0 34.6-20.4 66-52 80zM128 812.2H64v-64h64v64z m388.3-53.7h-64v-64h64v64zM128 684.2H64v-64h64v64z m388.3-53.7h-64v-35.3c0-4.1-1-8-3-11.6l55.6-31.6c7.5 13.1 11.4 28.1 11.4 43.2v35.3zM133.5 580l-48.8-41.4c16.7-19.6 41-30.9 66.7-30.9h15.8v64h-15.8c-6.8 0-13.4 3.1-17.9 8.3z m289.8-8.3h-64v-64h64v64z m-128 0h-64v-64h64v64z" fill="#BFD1EB" /><path d="M852.5 216.7l-45.2-45.2-212.7 212.6V275.9l-65.1 65.2v153.4h153.4l65.2-65.1H639.9z" fill="#497CAD" /></svg>