<?xml version="1.0" standalone="no"?><!DOCTYPE svg PUBLIC "-//W3C//DTD SVG 1.1//EN" "http://www.w3.org/Graphics/SVG/1.1/DTD/svg11.dtd"><svg class="icon" width="32px" height="32.00px" viewBox="0 0 1024 1024" version="1.1" xmlns="http://www.w3.org/2000/svg"><path d="M458.2 371H112.6C86.9 371 66 350.1 66 324.5V164.9c0-25.7 20.9-46.5 46.5-46.5h345.6c25.7 0 46.5 20.9 46.5 46.5v159.5c0.1 25.7-20.8 46.6-46.4 46.6zM112.6 158.3c-3.6 0-6.6 3-6.6 6.6v159.5c0 3.6 3 6.6 6.6 6.6h345.6c3.6 0 6.6-3 6.6-6.6V164.9c0-3.6-3-6.6-6.6-6.6H112.6zM910.1 908H258.8c-25.7 0-46.5-20.9-46.5-46.5V515.9c0-25.7 20.9-46.5 46.5-46.5h651.3c25.7 0 46.5 20.9 46.5 46.5v345.6c0 25.7-20.8 46.5-46.5 46.5zM258.8 509.2c-3.6 0-6.6 3-6.6 6.6v345.6c0 3.6 3 6.6 6.6 6.6h651.3c3.6 0 6.6-3 6.6-6.6V515.9c0-3.6-3-6.6-6.6-6.6H258.8z" fill="#4F4F4F" /><path d="M225.5 695.3h-59.3c-18.3 0-33.2-14.9-33.2-33.1l-0.5-305.8c0-11 8.9-20 19.9-20 11 0 19.9 8.9 19.9 19.9l0.5 299.1h52.7c11 0 19.9 8.9 19.9 19.9s-8.8 20-19.9 20z" fill="#4F4F4F" /></svg>