<?xml version="1.0" standalone="no"?><!DOCTYPE svg PUBLIC "-//W3C//DTD SVG 1.1//EN" "http://www.w3.org/Graphics/SVG/1.1/DTD/svg11.dtd"><svg class="icon" width="32px" height="32.00px" viewBox="0 0 1024 1024" version="1.1" xmlns="http://www.w3.org/2000/svg"><path d="M779.21 870.65H244.8c-50.41 0-91.43-41.02-91.43-91.43V244.79c0-50.41 41.02-91.43 91.43-91.43h534.41c50.41 0 91.43 41.02 91.43 91.43v534.43c0 50.41-41.02 91.43-91.43 91.43zM244.8 226.51c-10.08 0-18.29 8.2-18.29 18.29v534.43c0 10.09 8.21 18.29 18.29 18.29h534.41c10.08 0 18.29-8.2 18.29-18.29V244.79c0-10.09-8.21-18.29-18.29-18.29H244.8z" fill="#000000" /><path d="M742.2 684.83H553.64c-20.2 0-36.57-16.38-36.57-36.57 0-20.2 16.38-36.57 36.57-36.57H742.2c20.2 0 36.57 16.38 36.57 36.57 0.01 20.19-16.37 36.57-36.57 36.57z" fill="#000000" /><path d="M647.92 779.11c-20.2 0-36.57-16.38-36.57-36.57V553.99c0-20.2 16.38-36.57 36.57-36.57 20.2 0 36.57 16.38 36.57 36.57v188.55c0 20.2-16.38 36.57-36.57 36.57z" fill="#000000" /><path d="M681.98 360.02H342.03c-20.2 0-36.57-16.38-36.57-36.57 0-20.2 16.38-36.57 36.57-36.57h339.96c20.2 0 36.57 16.38 36.57 36.57-0.01 20.2-16.38 36.57-36.58 36.57zM516.06 493.52H342.03c-20.2 0-36.57-16.38-36.57-36.57 0-20.2 16.38-36.57 36.57-36.57h174.04c20.2 0 36.57 16.38 36.57 36.57-0.01 20.2-16.38 36.57-36.58 36.57z" fill="#000000" /></svg>