<?xml version="1.0" standalone="no"?><!DOCTYPE svg PUBLIC "-//W3C//DTD SVG 1.1//EN" "http://www.w3.org/Graphics/SVG/1.1/DTD/svg11.dtd"><svg class="icon" width="32px" height="32.00px" viewBox="0 0 1024 1024" version="1.1" xmlns="http://www.w3.org/2000/svg"><path d="M858.7 525.3h-259c-18.7 0-36.8-6.6-51.2-18.5l-137.8-72.1H336c-44.2 0-80 35.8-80 80v250.7c0 44.2 35.8 80 80 80h522.7c44.2 0 80-35.8 80-80v-160c0-44.2-35.9-80.1-80-80.1z" fill="#F4C708" /><path d="M858.7 866.7H165.3c-23.8 0-101.3-10.4-101.3-144V216c0-22.3 56.6-58.7 101.3-58.7h160c5 0 9.8 1.8 13.7 4.9L476.8 277c10.5 8.8 23.8 13.6 37.5 13.6h344.4c55.9 0 101.3 45.5 101.3 101.3v373.3c0 56-45.5 101.5-101.3 101.5z m-752-642v498c0 37.9 7.6 101.3 58.7 101.3h693.3c32.4 0 58.7-26.3 58.7-58.7V392c0-32.4-26.3-58.7-58.7-58.7H514.3c-23.7 0-46.7-8.3-64.9-23.5L317.6 200H165.3c-25.5 0-48.8 16.2-58.6 24.7z" fill="#111111" /><path d="M478.7 713.3c-11.8 0-21.3-9.5-21.3-21.3V478.7c0-11.8 9.5-21.3 21.3-21.3s21.3 9.5 21.3 21.3V692c0 11.8-9.5 21.3-21.3 21.3z" fill="#111111" /><path d="M585.3 606.7H372c-11.8 0-21.3-9.5-21.3-21.3s9.5-21.3 21.3-21.3h213.3c11.8 0 21.3 9.5 21.3 21.3 0.1 11.7-9.5 21.3-21.3 21.3z" fill="#111111" /></svg>