<?xml version="1.0" standalone="no"?><!DOCTYPE svg PUBLIC "-//W3C//DTD SVG 1.1//EN" "http://www.w3.org/Graphics/SVG/1.1/DTD/svg11.dtd"><svg class="icon" width="32px" height="32.00px" viewBox="0 0 1024 1024" version="1.1" xmlns="http://www.w3.org/2000/svg"><path d="M888.640638 178.095187 344.424912 178.095187c0 0-37.257555-65.74333-75.9109-65.74333L93.247242 112.351857c-15.407921 0-27.907607 15.117302-27.907607 33.675984l0 50.736545c0 18.508539 12.499685 33.624818 27.907607 33.624818l796.417725 0c15.408945 0 26.220175-7.514137 26.220175-26.022677l0.067538 0.38374C915.95268 186.241728 904.049582 178.095187 888.640638 178.095187z" fill="#2DAAD2" /><path d="M958.413747 833.260841c0 18.508539-12.500709 33.624818-27.90863 33.624818L93.247242 866.88566c-15.407921 0-27.907607-15.116279-27.907607-33.624818L65.339636 294.90559c0-18.508539 12.499685-33.625842 27.907607-33.625842l837.257875 0c15.408945 0 27.90863 15.117302 27.90863 33.625842L958.413747 833.260841z" fill="#3399CC" /><path d="M351.692433 523.843746l320.318376 0 0 80.529081-320.318376 0 0-80.529081Z" fill="#FFFFFF" /><path d="M471.659735 403.923516l80.479963 0 0 320.319399-80.479963 0 0-320.319399Z" fill="#FFFFFF" /></svg>