<?xml version="1.0" standalone="no"?><!DOCTYPE svg PUBLIC "-//W3C//DTD SVG 1.1//EN" "http://www.w3.org/Graphics/SVG/1.1/DTD/svg11.dtd"><svg class="icon" width="32px" height="32.00px" viewBox="0 0 1024 1024" version="1.1" xmlns="http://www.w3.org/2000/svg"><path d="M820.2752 896.512H211.968c-72.7552 0-131.7376-58.8288-131.7376-131.3792V230.0928c0-72.5504 58.9824-131.3792 131.7376-131.3792h169.3696c43.6736 0 82.8928 26.6752 98.8672 67.2256l23.0912 42.9056c8.8064 22.3232 30.4128 37.0176 54.4768 37.0176h262.5024c72.7552 0 131.7376 58.8288 131.7376 131.3792v387.9424c0 72.5504-58.9824 131.328-131.7376 131.328z" fill="#aaaaf8" /><path d="M629.6576 539.8016H545.792V456.192c0-21.76-17.7152-39.424-39.5264-39.424s-39.5264 17.664-39.5264 39.424v83.6096H382.8736c-21.8112 0-39.5264 17.664-39.5264 39.424s17.7152 39.424 39.5264 39.424h83.8656v83.6096c0 21.76 17.7152 39.424 39.5264 39.424s39.5264-17.664 39.5264-39.424v-83.6096h83.8656c21.8112 0 39.5264-17.664 39.5264-39.424 0-21.8112-17.7152-39.424-39.5264-39.424z" fill="#FFCD43" /></svg>