<?xml version="1.0" standalone="no"?><!DOCTYPE svg PUBLIC "-//W3C//DTD SVG 1.1//EN" "http://www.w3.org/Graphics/SVG/1.1/DTD/svg11.dtd"><svg class="icon" width="32px" height="32.00px" viewBox="0 0 1024 1024" version="1.1" xmlns="http://www.w3.org/2000/svg"><path fill="#000000" d="M892.16 862.72l-52.608-302.784h17.792c14.272 0 25.728-11.52 25.728-25.792V343.872a25.728 25.728 0 0 0-25.728-25.728h-243.84V137.792a25.728 25.728 0 0 0-25.728-25.792H429.248a25.728 25.728 0 0 0-25.792 25.792V318.08H159.68a25.728 25.728 0 0 0-25.792 25.728v190.272c0 14.272 11.52 25.792 25.792 25.792h17.728l-52.48 302.848a25.728 25.728 0 0 0 25.344 30.08h716.48a25.6 25.6 0 0 0 25.344-30.08zM203.2 387.584h269.568V181.376h71.36v206.08h269.504v103.04H203.264v-103.04z m463.808 435.968v-154.56a7.936 7.936 0 0 0-7.936-7.936h-47.552a7.936 7.936 0 0 0-7.936 7.936v154.56H413.376v-154.56a7.936 7.936 0 0 0-7.936-7.936h-47.552a7.936 7.936 0 0 0-7.936 7.936v154.56h-147.84l44.672-257.6h523.328l44.672 257.6h-147.712z" /></svg>