<?xml version="1.0" standalone="no"?><!DOCTYPE svg PUBLIC "-//W3C//DTD SVG 1.1//EN" "http://www.w3.org/Graphics/SVG/1.1/DTD/svg11.dtd"><svg class="icon" width="32px" height="31.97px" viewBox="0 0 1025 1024" version="1.1" xmlns="http://www.w3.org/2000/svg"><path fill="#000000" d="M548.576 512q14.848 0 25.728 10.848t10.848 25.728-10.848 25.728-25.728 10.848-25.728-10.848-10.848-25.728 10.848-25.728 25.728-10.848zM720 548.576l289.728 227.424q16 11.424 14.272 32-2.848 20-20 29.152l-73.152 36.576q-7.424 4-16.576 4-9.728 0-17.728-4.576l-394.272-221.152-62.848 37.728q-4.576 2.272-6.848 2.848 8 28 5.728 55.424-4 44-32 84.288t-75.424 70.56q-75.424 48-158.272 48-77.728 0-126.848-44.576-51.424-48-45.152-118.272 4-43.424 32-84t74.848-70.848q75.424-48 158.848-48 47.424 0 86.272 17.728 5.152-7.424 12.576-12.576l69.728-41.728-69.728-41.728q-7.424-5.152-12.576-12.576-38.848 17.728-86.272 17.728-83.424 0-158.848-48-46.848-30.272-74.848-70.848t-32-84q-2.848-33.728 8.864-64.576t36.288-53.152q48.576-45.152 126.848-45.152 82.848 0 158.272 48 47.424 29.728 75.424 70.272t32 84.576q2.272 27.424-5.728 55.424 2.272 0.576 6.848 2.848l62.848 37.728 394.272-221.152q8-4.576 17.728-4.576 9.152 0 16.576 4l73.152 36.576q17.152 9.152 20 29.152 1.728 20.576-14.272 32zM330.848 400q26.272-24 12-61.728t-60.576-66.848q-52.576-33.728-109.728-33.728-42.272 0-64.576 20.576-26.272 24-12 61.728t60.576 66.848q52.576 33.728 109.728 33.728 42.272 0 64.576-20.576zM282.272 825.728q46.272-29.152 60.576-66.848t-12-61.728q-22.272-20.576-64.576-20.576-57.152 0-109.728 33.728-46.272 29.152-60.576 66.848t12 61.728q22.272 20.576 64.576 20.576 57.152 0 109.728-33.728zM384 475.424l54.848 33.152 0-6.272q0-20.576 18.848-32l8-4.576-45.152-26.848-14.848 14.848q-1.728 1.728-5.728 6.272t-6.848 6.848q-1.152 1.152-2.272 2.016t-1.728 1.44zM512 603.424l54.848 18.272 420.576-329.152-73.152-36.576-438.848 246.272 0 64.576-91.424 54.848 5.152 4.576q1.152 1.152 4 3.424 2.272 2.272 6.272 6.848t6.272 6.848l14.848 14.848zM914.272 841.152l73.152-36.576-297.152-233.152-101.152 78.848q-1.152 1.728-7.424 4z" /></svg>