<?xml version="1.0" standalone="no"?><!DOCTYPE svg PUBLIC "-//W3C//DTD SVG 1.1//EN" "http://www.w3.org/Graphics/SVG/1.1/DTD/svg11.dtd"><svg class="icon" width="32px" height="32.00px" viewBox="0 0 1024 1024" version="1.1" xmlns="http://www.w3.org/2000/svg"><path fill="#000000" d="M660.64 492.8a181.6 181.6 0 0 0 55.52-130.4v-4.8A181.92 181.92 0 0 0 534.4 176H280a32 32 0 0 0-32 32v608a32 32 0 0 0 32 32h314.24A181.76 181.76 0 0 0 776 666.4v-4.8a181.6 181.6 0 0 0-115.36-168.8zM312 240h222.4a117.76 117.76 0 0 1 117.76 117.6v4.8A117.76 117.76 0 0 1 534.4 480H312z m400 426.4A117.76 117.76 0 0 1 594.24 784H312V544h282.24a117.76 117.76 0 0 1 117.76 117.6z" /></svg>