<?xml version="1.0" standalone="no"?><!DOCTYPE svg PUBLIC "-//W3C//DTD SVG 1.1//EN" "http://www.w3.org/Graphics/SVG/1.1/DTD/svg11.dtd"><svg class="icon" width="32px" height="32.00px" viewBox="0 0 1024 1024" version="1.1" xmlns="http://www.w3.org/2000/svg"><path fill="#000000" d="M512 128a384 384 0 0 0-384 384 384 384 0 0 0 384 384 384 384 0 0 0 384-384 384 384 0 0 0-384-384z m233.301333 617.301333a328.277333 328.277333 0 0 1-104.917333 70.741334 326.272 326.272 0 0 1-128.384 25.941333 327.936 327.936 0 0 1-128.384-25.856A330.325333 330.325333 0 0 1 207.872 383.573333a330.368 330.368 0 0 1 175.658667-175.616A326.826667 326.826667 0 0 1 512 181.973333a329.685333 329.685333 0 0 1 233.344 96.64A328.362667 328.362667 0 0 1 841.984 512a328.064 328.064 0 0 1-96.64 233.301333zM629.674667 310.613333a27.008 27.008 0 1 0-27.093334 46.72 180.778667 180.778667 0 0 1 90.368 156.672 179.754667 179.754667 0 0 1-52.992 128A179.754667 179.754667 0 0 1 512 694.954667a179.797333 179.797333 0 0 1-127.914667-53.034667 179.797333 179.797333 0 0 1-53.034666-127.957333 180.821333 180.821333 0 0 1 90.368-156.672 27.008 27.008 0 1 0-27.093334-46.72 234.922667 234.922667 0 0 0-117.333333 203.392c0 62.805333 24.490667 121.728 68.906667 166.144A233.386667 233.386667 0 0 0 512 749.013333a233.386667 233.386667 0 0 0 166.101333-68.821333 233.301333 233.301333 0 0 0 68.864-166.144 234.581333 234.581333 0 0 0-117.333333-203.434667zM512 487.978667a26.965333 26.965333 0 0 0 27.008-26.965334V299.008a27.008 27.008 0 0 0-54.016 0v162.005333c0 14.933333 12.074667 27.008 27.008 27.008z"  /></svg>