<?xml version="1.0" standalone="no"?><!DOCTYPE svg PUBLIC "-//W3C//DTD SVG 1.1//EN" "http://www.w3.org/Graphics/SVG/1.1/DTD/svg11.dtd"><svg class="icon" width="32px" height="32.00px" viewBox="0 0 1024 1024" version="1.1" xmlns="http://www.w3.org/2000/svg"><path fill="#000000" d="M873.733058 1024H370.253482c-12.393343 0-23.237519-10.844175-23.237519-23.237519s10.844175-23.237519 23.237519-23.237519h503.479576c57.319213 0 102.245083-46.475038 102.245083-102.245083V150.269289c0-55.770045-46.475038-102.245083-102.245083-102.245083H370.253482c-57.319213 0-102.245083 46.475038-102.245083 102.245083v134.77761c0 12.393343-10.844175 23.237519-23.237519 23.237519s-23.237519-10.844175-23.237519-23.237519V150.269289c0-82.1059 66.614221-147.170953 148.720121-147.170953h503.479576c82.1059 0 148.720121 66.614221 148.720121 147.170953v725.01059c0 82.1059-66.614221 148.720121-148.720121 148.720121z m0 0"  /><path fill="#000000" d="M669.242892 1024H148.722468c-82.1059 0-148.720121-66.614221-148.720121-147.170953V285.046899c0-12.393343 10.844175-23.237519 23.237519-23.237519h562.347958c9.295008 0 12.393343 3.098336 24.786687 15.491679l23.237519 23.237519 71.261724 71.261725c26.335855 26.335855 52.67171 51.122542 71.261725 71.261724l23.237519 23.237519c12.393343 12.393343 15.491679 15.491679 15.491679 24.786687v382.644478c3.098336 83.655068-63.515885 150.269289-145.621785 150.269289zM46.477385 308.284418v568.544629c0 55.770045 46.475038 102.245083 102.245083 102.245083h520.520424c57.319213 0 102.245083-46.475038 102.245083-102.245083V501.930408L576.292816 306.73525l-529.815431 1.549168z m0 0"  /><path fill="#000000" d="M794.725494 515.87292H587.136992c-12.393343 0-23.237519-10.844175-23.237519-23.237519V285.046899c0-9.295008 6.196672-17.040847 13.942511-21.688351 7.74584-3.098336 18.590015-1.549168 24.786687 4.647503l207.588502 207.588503c6.196672 6.196672 7.74584 17.040847 4.647504 24.786687-3.098336 9.295008-10.844175 15.491679-20.139183 15.491679z m-185.900151-44.92587h130.130106L608.825343 340.816944v130.130106z m-116.187595-18.590015H123.935781c-12.393343 0-23.237519-10.844175-23.237518-23.237519s10.844175-23.237519 23.237518-23.237519h367.152799c12.393343 0 23.237519 10.844175 23.237519 23.237519 1.549168 13.942511-9.295008 23.237519-21.688351 23.237519z m0 140.974281H123.935781c-12.393343 0-23.237519-10.844175-23.237518-23.237519s10.844175-23.237519 23.237518-23.237519h367.152799c12.393343 0 23.237519 10.844175 23.237519 23.237519 1.549168 13.942511-9.295008 23.237519-21.688351 23.237519z m209.13767 140.974282H123.935781c-12.393343 0-23.237519-10.844175-23.237518-23.237519s10.844175-23.237519 23.237518-23.237519h577.839637c12.393343 0 23.237519 10.844175 23.237519 23.237519 0 13.942511-9.295008 23.237519-23.237519 23.237519z m0 140.974281H123.935781c-12.393343 0-23.237519-10.844175-23.237518-23.237519s10.844175-23.237519 23.237518-23.237519h577.839637c12.393343 0 23.237519 10.844175 23.237519 23.237519 0 13.942511-9.295008 23.237519-23.237519 23.237519z m0 0"  /></svg>