<?xml version="1.0" standalone="no"?><!DOCTYPE svg PUBLIC "-//W3C//DTD SVG 1.1//EN" "http://www.w3.org/Graphics/SVG/1.1/DTD/svg11.dtd"><svg class="icon" width="32px" height="27.06px" viewBox="0 0 1211 1024" version="1.1" xmlns="http://www.w3.org/2000/svg"><path d="M23.272194 1024.000004C23.272194 1024.000004 23.29447 878.914059 143.161892 840.256154 263.029316 801.608644 404.074534 774.50267 438.88328 724.245313 438.88328 724.245313 310.316641 737.791618 265.835993 695.237035 221.35386 652.692847 237.80634 609.180429 245.532871 585.983013 245.532871 585.983013 219.427795 577.279341 218.455112 555.07243 217.479458 532.820969 285.163461 445.796132 293.864163 388.75226 302.56338 331.721752 335.422302 149.950002 403.10185 75.515124 470.787339 1.080239 542.345746 5.905049 570.373915 5.905049 598.408024 5.905049 731.633154 13.790479 778.222524 99.692646 843.487439 220.056065 865.284486 415.834473 903.896356 463.204959 942.600298 510.591781 968.70537 571.478872 916.486311 577.27934 916.486311 577.27934 960.271974 689.347466 879.74259 717.488495 818.830254 738.749452 737.662316 722.296973 737.662316 722.296973 737.662316 722.296973 732.446945 764.351106 972.455032 824.806058 1064.095292 847.834183 1134.828035 911.777435 1133.926629 1023.936146" fill="#272636" /></svg>