<?xml version="1.0" standalone="no"?><!DOCTYPE svg PUBLIC "-//W3C//DTD SVG 1.1//EN" "http://www.w3.org/Graphics/SVG/1.1/DTD/svg11.dtd"><svg class="icon" width="32px" height="32.00px" viewBox="0 0 1024 1024" version="1.1" xmlns="http://www.w3.org/2000/svg"><path d="M247.45547 458.17907c0 32.418659 26.283225 58.701883 58.701884 58.701883s58.701883-26.283225 58.701883-58.701883-26.283225-58.701883-58.701883-58.701884-58.701883 26.283225-58.701884 58.701884zM656.194509 458.17907c0 32.418659 26.769146 58.701883 59.788956 58.701883s59.788955-26.283225 59.788955-58.701883-26.769146-58.701883-59.788955-58.701884-59.788955 26.283225-59.788956 58.701884z" fill="#EFC29B" /><path d="M685.545451 458.722606c0 16.509361 13.871038 29.894478 30.98155 29.894477S747.50855 475.231967 747.50855 458.722606s-13.871038-29.894478-30.981549-29.894478S685.545451 442.213244 685.545451 458.722606z" fill="#FA997B" opacity=".5" /><path d="M270.283981 458.722606c0 16.509361 13.871038 29.894478 30.981549 29.894477S332.24708 475.231967 332.24708 458.722606s-13.871038-29.894478-30.98155-29.894478S270.283981 442.213244 270.283981 458.722606z" fill="#E89E80" opacity=".5" /><path d="M645.053109 1243.618964H377.092057C338.514049 1243.618964 307.244426 1212.208021 307.244426 1173.459343V777.2999C307.244426 738.55557 338.514049 707.139192 377.092057 707.139192h267.961052c38.57366 0 69.843283 31.416378 69.843284 70.159621v396.159443c0 38.749765-31.269624 70.160708-69.843284 70.160708" fill="#264860" /><path d="M447.476702 756.036774h122.839126v-144.580565H447.476702z" fill="#EDC19A" /><path d="M588.615597 722.301671h-17.573605c-10.468503 15.632094-34.105794 26.543035-61.606539 26.543035-27.496397 0-51.133689-10.910941-61.602191-26.543035h-17.573605C347.312809 722.301671 280.067628 789.585987 280.067628 872.596972v230.703837c0 83.010985 67.245181 150.295301 150.192029 150.295301h158.35594C671.562445 1253.59611 738.811975 1186.311794 738.811975 1103.301896V872.596972C738.811975 789.585987 671.562445 722.301671 588.615597 722.301671" fill="#61BAF7" /><path d="M378.569388 708.205609C372.797036 708.205609 368.120453 712.758267 368.120453 718.377341V1103.899786h54.353595V718.377341C422.474048 712.75718 417.801813 708.205609 412.029461 708.205609H378.569388z" fill="#5D87A2" /><path d="M592.948666 708.205609C585.248935 708.205609 579.012404 714.282341 579.012404 721.788573V1103.899786h54.353595V721.788573C633.365999 714.282341 627.125119 708.205609 619.429737 708.205609H592.948666z" fill="#5D87A2" /><path d="M509.437627 670.158093C389.962989 670.158093 293.112491 583.170598 293.112491 475.867904V291.280919c0-35.101552 31.688146-63.561095 70.770555-63.561095h298.879552c34.797172 0 63.004514 25.333124 63.004514 56.585354v191.562726C725.767112 583.170598 628.912266 670.158093 509.437627 670.158093" fill="#F6D1B1" /><path d="M450.737918 521.229241c0 33.019809 26.282138 59.788955 58.701883 59.788955s58.701883-26.769146 58.701884-59.788955H450.737918z" fill="#FA997B" /><path d="M371.390365 477.746364c2.077394 0 4.069997 0.815304 5.538631 2.268719a7.701904 7.701904 0 0 1 2.293722 5.476668v25.817958c0 2.054566-0.825088 4.02434-2.293722 5.476669a7.876923 7.876923 0 0 1-5.538631 2.268719h-5.221206c-4.326546 0-7.832353-3.467759-7.832354-7.745388v-25.817958c0-4.277628 3.506894-7.745387 7.832354-7.745387h5.221206z m31.329412 0c2.078481 0 4.069997 0.815304 5.538632 2.268719a7.701904 7.701904 0 0 1 2.293722 5.476668v25.817958c0 2.054566-0.824001 4.02434-2.293722 5.476669a7.876923 7.876923 0 0 1-5.537544 2.268719h-5.222294c-4.325459 0-7.832353-3.467759-7.832353-7.745388v-25.817958c0-4.277628 3.506894-7.745387 7.832353-7.745387h5.222294z m226.270758 0c4.325459 0 7.832353 3.467759 7.832353 7.745387v25.817958c0 4.277628-3.506894 7.745387-7.832353 7.745388h-5.222294c-4.325459 0-7.832353-3.467759-7.832353-7.745388v-25.817958c0-4.277628 3.506894-7.745387 7.832353-7.745387h5.222294z m31.329412 0c4.326546 0 7.832353 3.467759 7.832353 7.745387v25.817958c0 4.277628-3.506894 7.745387-7.832353 7.745388h-5.221206c-4.326546 0-7.832353-3.467759-7.832353-7.745388v-25.817958c0-4.277628 3.505807-7.745387 7.832353-7.745387h5.221206z" fill="#F5AE7A" opacity=".5" /><path d="M371.381668 415.239729c0 15.309234 12.4111 27.720334 27.720334 27.720334S426.822336 430.548963 426.822336 415.239729s-12.4111-27.720334-27.720334-27.720334S371.381668 399.930495 371.381668 415.239729zM587.708979 415.239729c0 15.309234 12.4111 27.720334 27.720334 27.720334S643.149646 430.548963 643.149646 415.239729s-12.4111-27.720334-27.720333-27.720334S587.708979 399.930495 587.708979 415.239729z" fill="#181818" /><path d="M441.022756 44.36884C393.307909 60.606433 376.261534 90.531349 352.410089 95.664502c-23.862316 5.127718-93.158802 26.461504-96.286307 131.65528-3.405796 114.555638 2.492656 197.3416 2.492656 197.341599S289.949111 410.663156 292.742886 448.395422l1.721922-132.509717s5.968025-52.151188 18.746555-60.695574c0 0 15.336411 9.399911 29.81947 9.399911 14.489582 0 305.042162-3.416667 305.042162-3.416667s23.861228-3.422102 44.309051-16.248464c0 0 28.119289 27.359426 28.972641 56.427729 0.852264 29.065042 3.799316 133.890299 3.799316 133.890299s10.908767-29.514002 34.182977-15.9343c0 0 19.105289-186.862226-20.093438-227.041491 0 0 43.4557-39.324826 8.52047-73.526283 0 0 31.525085-23.076363 16.19411-41.035878-15.341846-17.947557-70.723812-29.063955-117.590743-0.855525 0 0 9.373821-45.306983-67.308231-16.243029 0 0-1.704529-49.583524-74.133956 0 0 0-16.188675-32.486057-63.902436-16.237593z" fill="#1C3244" /><path d="M575.406586 347.089017c28.382361-14.246077 55.031928-14.246077 79.291025 0.181541a5.263602 5.263602 0 0 1 1.831717 7.239899c-1.50342 2.501352-4.760288 3.317743-7.274686 1.821932-21.009839-12.494805-43.813346-12.494805-69.069288 0.182628-2.615495 1.312096-5.806051 0.266333-7.125756-2.336117a5.266863 5.266863 0 0 1 2.348075-7.089883zM359.079276 347.089017c28.382361-14.246077 55.031928-14.246077 79.291025 0.181541a5.263602 5.263602 0 0 1 1.831716 7.239899c-1.50342 2.501352-4.760288 3.317743-7.274685 1.821932-21.009839-12.494805-43.813346-12.494805-69.069288 0.182628-2.615495 1.312096-5.806051 0.266333-7.125757-2.336117a5.266863 5.266863 0 0 1 2.348076-7.089883z" fill="#1F3649" /></svg>