<?xml version="1.0" standalone="no"?><!DOCTYPE svg PUBLIC "-//W3C//DTD SVG 1.1//EN" "http://www.w3.org/Graphics/SVG/1.1/DTD/svg11.dtd"><svg class="icon" width="32px" height="32.00px" viewBox="0 0 1024 1024" version="1.1" xmlns="http://www.w3.org/2000/svg"><path d="M702.173782 281.951557c0.488117-9.497305 0.649799-19.208481 0.649799-29.141714 0-103.524818-88.201831-187.449229-191.659111-187.449229-103.46035 0-191.651948 83.924411-191.651948 187.449229 0 10.447956-0.017396 20.137643 0.135076 29.219485-139.447982 21.956058-186.182376 238.829434-37.521568 221.715661-1.499144-43.136449-4.168949-145.838529 40.080857-183.191252 4.545526 31.522947 16.778128 56.641021 49.65491 86.387509 5.882987 11.738345 12.340049 23.006993 19.292392 33.579793 31.950689 48.613184 74.724889 83.182514 120.010281 83.182514 45.285393 0 88.061638-34.56933 120.014374-83.182514 6.968715-10.595312 13.43908-21.893636 19.322068-33.661657 28.311813-26.209942 41.546232-55.593156 47.560202-87.976704 46.393633 35.862789 43.655266 141.062759 42.135656 184.861288C889.038704 520.878205 842.010621 303.4635 702.173782 281.951557zM625.681644 394.423141c-4.957919 10.761088-11.192923 20.928658-17.699104 30.833239-20.414959 31.057343-56.30333 70.669526-96.818069 70.669526-40.513716 0-76.407204-39.610136-96.816023-70.669526-6.494924-9.881045-12.369725-20.189831-17.667382-30.762631-16.313547-32.567743-20.165272-48.895617-30.728862-83.440387 7.631818-1.508353 19.495006-5.41636 28.139897-7.610328 19.941168-20.611433 28.386514-35.789111 38.502919-64.386426 4.962012 24.680099 4.419659 38.217417-1.868557 65.110927 11.618619 1.735527 20.974707 1.889023 30.143531-0.861624 22.280446-18.668175 33.734312-45.768393 43.536562-83.645049 4.450359 30.066783 6.238075 45.294602 1.38044 75.664284 54.239322 10.0591 106.213044 9.045003 151.755286-2.476401C647.042137 349.658611 642.28888 358.364901 625.681644 394.423141z" fill="#E75D5C" /><path d="M513.493515 952.183348 233.49238 952.183348c-11.537777 0-20.696368-8.333806-20.398586-19.874653 2.676969-105.783255 24.474414-191.666274 57.293891-297.455669 10.962679-35.331693 36.936237-51.03842 69.428256-65.801658-11.94403 86.343507-4.244674 181.307346 2.508123 262.673491l112.713085-72.930009c19.539009-12.33698 39.070854-24.639167 58.456367-37.149085 50.111305 32.342616 102.394065 64.250326 151.588487 97.113805l19.579941 13.08911c6.748704-81.367169 14.452153-176.188768 2.5071-262.533298 32.500205 14.760169 58.462506 30.736025 69.429279 66.071811 32.816406 105.788371 54.619992 191.132108 57.293891 296.918433 0.293689 11.540847-8.863878 19.874653-20.398586 19.874653L513.493515 952.180278z" fill="#E75D5C" /><path d="M369.7456 556.926212c15.867386-5.894244 35.026748-12.30935 46.988174-15.760962 1.702782 28.028357 44.36851 50.472532 96.759741 50.472532 52.392254 0 95.055936-22.443152 96.761788-50.472532 11.957333 3.451612 31.113625 9.867742 46.984081 15.760962 12.431124 71.320349 8.979512 154.859997 3.577478 225.856981-48.557926-31.755238-98.869798-62.450331-147.323347-94.110401-48.454572 31.659047-98.766444 62.355163-147.325393 94.110401C360.766089 711.786209 357.317547 628.247584 369.7456 556.926212z" fill="#E75D5C" /></svg>