<?xml version="1.0" standalone="no"?><!DOCTYPE svg PUBLIC "-//W3C//DTD SVG 1.1//EN" "http://www.w3.org/Graphics/SVG/1.1/DTD/svg11.dtd"><svg class="icon" width="32px" height="32.00px" viewBox="0 0 1024 1024" version="1.1" xmlns="http://www.w3.org/2000/svg"><path d="M505.32 883.33c-9.44 19.82-15 48-16.73 75.94H336.94c2-30.79 15.26-60.8 38.38-87.25 16.89 11.94 46.31 28.72 78.24 28.72a86 86 0 0 0 17.57-1.74A82.34 82.34 0 0 0 505 883.11zM730.82 959.27H585.08c-1.73-27.91-7.28-56.12-16.74-75.94l0.39-0.28a81.29 81.29 0 0 0 34.21 16 84.16 84.16 0 0 0 16.74 1.66c30.32 0 58.24-15.55 75.09-27.38 20.54 24.72 34.09 54.04 36.05 85.94zM779.5 386.5a187.73 187.73 0 0 1-3.26 34.85c-0.51 2.69-1.08 5.38-1.71 8-0.11-2.69-0.26-5.38-0.47-8-0.51-6.57-2.44-16-2.44-16h-61.5l-45-33.54a8 8 0 0 0-12.74 5.62l-3.28 32.51c-1.66 0.27-3.34 0.59-5.06 1l-11.91-54.16a8 8 0 0 0-7.81-6.29h-0.09a8 8 0 0 0-7.76 6.45l-10.77 54.54h-168a83.83 83.83 0 0 0-41.59 0h-88v-2.59q-1.27 9.18-1.73 18.59c-0.09 1.75-0.15 3.51-0.19 5.27-0.44-1.75-0.86-3.5-1.25-5.27a187.32 187.32 0 0 1 7.71-107.62c1.37-6.83 3.06-13.59 5.05-20.23 0.4-1.36 0.81-2.71 1.24-4.06 0.37-1.17 0.75-2.34 1.14-3.5a149.819 149.819 0 0 1 1.53-4.44 1.07 1.07 0 0 1 0.07-0.19c0.45-1.3 0.93-2.59 1.42-3.88s0.9-2.37 1.37-3.54 0.95-2.35 1.44-3.52c0.08-0.21 0.17-0.42 0.26-0.63l0.15-0.36c0.51-1.23 1-2.45 1.58-3.66s1-2.16 1.47-3.24l0.48-1.05c0.53-1.12 1.06-2.24 1.61-3.35s1.07-2.17 1.62-3.25c0.2-0.41 0.42-0.83 0.63-1.24 0.52-1 1.05-2 1.59-3 0.66-1.24 1.34-2.48 2-3.71 0.56-1 1.14-2 1.74-3a0.09 0.09 0 0 1 0-0.06c0.25-0.44 0.51-0.88 0.77-1.32 0.56-1 1.14-1.93 1.72-2.88 0.82-1.35 1.65-2.69 2.51-4 0.65-1 1.32-2.07 2-3.09 1.09-1.64 2.19-3.27 3.32-4.89 0.41-0.59 0.83-1.19 1.26-1.78 0.82-1.16 1.66-2.31 2.5-3.46 0.47-0.63 0.93-1.25 1.41-1.88l0.15-0.2c0.56-0.74 1.12-1.48 1.7-2.21a0.33 0.33 0 0 1 0.06-0.08c0.59-0.77 1.19-1.53 1.8-2.29l1.64-2c0.7-0.87 1.42-1.73 2.14-2.59 1.13-1.36 2.27-2.7 3.44-4s2.52-2.87 3.81-4.27q2.47-2.7 5-5.32 5.87-6 12.14-11.52 4.65-4.11 9.53-7.94c2.84-2.25 5.74-4.41 8.68-6.51h0.05a229.22 229.22 0 0 1 135-43.47c20.69 0 75.53 4.45 138.1 45.64q5.22 3.89 10.17 8 3.17 2.63 6.2 5.33c0.61 0.54 1.21 1.08 1.8 1.63 0.51 0.45 1 0.91 1.52 1.38l0.05 0.05c0.82 0.75 1.62 1.51 2.42 2.28l1.16 1.11c0.81 0.79 1.62 1.58 2.41 2.37 5.62 5.71 10.94 11.59 15.76 17.45l0.08 0.09q5.58 6.81 10.58 14c0.87 1.25 1.74 2.52 2.58 3.79l0.56 0.82c0.57 0.86 1.14 1.73 1.69 2.6s1 1.52 1.45 2.28 0.82 1.31 1.22 2c0.64 1 1.26 2.08 1.88 3.13 0.43 0.7 0.84 1.4 1.24 2.11l0.63 1.1c0.82 1.43 1.62 2.88 2.4 4.33 0.45 0.82 0.89 1.64 1.32 2.47 1 1.88 2 3.78 2.89 5.7 0.24 0.49 0.48 1 0.71 1.48 0.52 1 1 2.12 1.51 3.18v0.08c0.55 1.21 1.1 2.42 1.63 3.64 0.08 0.17 0.16 0.34 0.23 0.52 0.35 0.78 0.68 1.56 1 2.35 0.21 0.47 0.41 0.95 0.61 1.43 0.55 1.32 1.08 2.65 1.6 4 0.27 0.68 0.53 1.35 0.79 2 0.52 1.36 1 2.72 1.52 4.09 0.25 0.69 0.49 1.37 0.73 2.06 1 2.75 1.89 5.53 2.74 8.33 0.43 1.38 0.85 2.77 1.25 4.17q2.54 8.63 4.35 17.44a187.43 187.43 0 0 1 13.05 67.82zM363.34 147A56.57 56.57 0 0 0 309 190.3a57.92 57.92 0 0 0-1.44 9.45 56.07 56.07 0 0 0-6.18 2.9 56.65 56.65 0 0 0-18.28 15.92 56.75 56.75 0 0 0-11.18 33.77 56.82 56.82 0 0 0 2.32 16.13A88.36 88.36 0 0 1 228.43 249c-17.27-14.11-25.28-31.25-23.83-51 1.35-18.18 10.74-38.42 27.18-58.53s34.39-33.36 51.93-38.3A57.24 57.24 0 0 1 299.19 99c13.54 0 26.68 5.15 39.21 15.39A88.41 88.41 0 0 1 363.34 147zM854.05 249a88.42 88.42 0 0 1-44 19.28 57.17 57.17 0 0 0 2.17-15.63A55.76 55.76 0 0 0 805 225a56.57 56.57 0 0 0-21.44-21.58 56 56 0 0 0-6.89-3.33 56.71 56.71 0 0 0-56.58-52.83h-1a88.48 88.48 0 0 1 25.06-32.87C756.62 104.14 769.75 99 783.29 99a57.19 57.19 0 0 1 15.48 2.2c17.55 4.94 35.51 18.19 51.94 38.3s25.83 40.35 27.17 58.53c1.46 19.7-6.56 36.84-23.83 50.97z" fill="#2D7F90" opacity=".59" /><path d="M855.68 252.87a104.13 104.13 0 0 1-62.09 23.63 56.37 56.37 0 0 0 7.93-16.74 88.42 88.42 0 0 0 44-19.28c17.27-14.11 25.29-31.25 23.83-51-1.35-18.14-10.71-38.38-27.14-58.48s-34.39-33.36-51.94-38.3a57.19 57.19 0 0 0-15.48-2.2c-13.54 0-26.67 5.15-39.21 15.39a88.48 88.48 0 0 0-25.06 32.87 56.73 56.73 0 0 0-18.42 3.44 104.35 104.35 0 0 1 33.36-48.7c21.24-17.35 45.15-22.95 69.15-16.2 20.72 5.84 41.47 20.9 60 43.58s29.15 46 30.74 67.47c1.82 24.85-8.43 47.16-29.67 64.52zM373.07 141.24a56.88 56.88 0 0 0-17.55-2.78h-0.68a88.41 88.41 0 0 0-24.94-32.59c-12.53-10.24-25.67-15.39-39.21-15.39a57.24 57.24 0 0 0-15.48 2.2c-17.54 4.94-35.5 18.19-51.93 38.3s-25.83 40.35-27.18 58.53c-1.45 19.71 6.56 36.85 23.83 51A88.36 88.36 0 0 0 265.72 260a56 56 0 0 0 8.06 16.58 104.15 104.15 0 0 1-64-23.69c-19.62-16-29.87-36.29-29.87-58.88 0-1.87 0.07-3.75 0.21-5.65 1.58-21.47 12.21-44.8 30.74-67.47s39.26-37.74 60-43.58c24-6.75 47.91-1.15 69.15 16.2a104.28 104.28 0 0 1 33.06 47.73zM738.56 958.77a8 8 0 0 1-8 8H320.19a8 8 0 0 1-8-8c0-25 6.61-49.63 19.64-73.15a188.32 188.32 0 0 1 22.34-31.88c2.42 2.07 6.78 5.63 12.65 9.78C343.7 890 330.41 920 328.44 950.77h393.88c-2-31.9-15.51-61.22-36.05-85.91 5.65-4 10.06-7.51 12.89-9.92a187.5 187.5 0 0 1 20.6 30.79c12.48 23.45 18.8 48.02 18.8 73.04z" fill="#31296B" /><path d="M808.94 544.63c-11.11 16.19-26.56 28.07-43.5 33.47-1.68 0.53-3.36 1-5 1.39q2.12-8.76 3.47-17.8c12.28-4.76 23.5-13.93 31.87-26.12 9.11-13.27 13.66-28.4 12.82-42.61-0.8-13.46-6.4-24.41-15.78-30.85a35 35 0 0 0-20.08-6h-1.18q3.22-7.82 5.79-15.86a50.21 50.21 0 0 1 24.53 8.62c13.53 9.29 21.59 24.59 22.69 43.09 1.02 17.79-4.52 36.48-15.63 52.67z" fill="#FFBAB3" /><path d="M797.36 497.83a6 6 0 0 1-7.9 3.1c-2.87-1.25-9.91 0.11-16.27 4.5a31.3 31.3 0 0 0-7 6.75v-16.5l0.18-0.13c9.59-6.62 20.54-8.82 27.89-5.62a6 6 0 0 1 3.1 7.9zM303.5 579.49a66.58 66.58 0 0 1-5-1.39c-16.93-5.4-32.38-17.28-43.5-33.47s-16.65-34.88-15.6-52.62c1.1-18.5 9.16-33.8 22.7-43.09a50.05 50.05 0 0 1 23.63-8.54q2.55 8 5.75 15.76h-0.25a35 35 0 0 0-20.08 6c-9.37 6.44-15 17.39-15.78 30.85-0.84 14.21 3.71 29.34 12.82 42.61 8.37 12.18 19.58 21.35 31.86 26.11q1.35 9.02 3.45 17.78z" fill="#FFBAB3" /><path d="M297.73 495.68v16.5a30.88 30.88 0 0 0-7-6.75c-6.35-4.39-13.4-5.75-16.27-4.5a6 6 0 1 1-4.8-11c7.35-3.2 18.3-1 27.89 5.62zM579.46 738.13v38.48l-3.19 1.85-12.81 7.44v-46.72c5.39-0.18 10.72-0.5 16-1.05zM486.1 738.29v46.05l-9.72-5.07-5.56-2.9-0.72-0.33v-39.93q7.9 1.39 16 2.18z" fill="#FFBAB3" /><path d="M750.19 495.58v35.06q0 9.38-0.89 18.53-0.78 8.1-2.22 16-1.46 8.12-3.61 16c-20.39 75-85 131.9-164 140.88q-7.9 0.9-16 1.15-2.94 0.09-5.91 0.09h-51.19a194 194 0 0 1-20.27-1.06q-8.1-0.86-16-2.36a193.27 193.27 0 0 1-149.65-138.73q-2.15-7.86-3.62-16c-1-5.26-1.7-10.61-2.21-16q-0.89-9.13-0.89-18.52v-33.7a216.72 216.72 0 0 1-16-27v60.7a210.39 210.39 0 0 0 2.3 31q1.37 9 3.47 17.81c19.27 80 84.8 142.23 166.6 156.62q7.9 1.39 16 2.18 10 1 20.27 1h51.18q3 0 5.91-0.09c5.39-0.14 10.72-0.5 16-1 88.42-9.27 160.57-74 180.95-158.64q2.12-8.76 3.47-17.8a209.17 209.17 0 0 0 2.31-31.05v-62.58a216 216 0 0 1-16 27.51z" fill="#FFBAB3" /><path d="M435.78 579.11a43.95 43.95 0 1 1-43.95-44 44 44 0 0 1 43.95 44zM716 579.11a44 44 0 1 1-43.95-44 44 44 0 0 1 43.95 44z" fill="#F47A8F" opacity=".4" /><path d="M533.76 590h-1.11c-14.77-0.63-24.06-12.84-25.07-14.23l-1.91-2.63v-116.4a10 10 0 1 1 20 0v109.31c1.92 1.79 4.85 3.85 7.89 4 4.05 0.16 8.16-3.56 10.86-6.68a10 10 0 0 1 15.12 13.09c-9.6 11.04-19.13 13.54-25.78 13.54z" fill="#F47A8F" /><path d="M621.73 479.73c0 16.94 12.09 30.67 27 30.67s27-13.73 27-30.67-12.08-30.66-27-30.66-27 13.73-27 30.66zM387.89 479.73c0 16.94 12.08 30.67 27 30.67s27-13.73 27-30.67-12.08-30.66-27-30.66-27 13.73-27 30.66zM447.55 417.52a5.65 5.65 0 0 1-1.21 1.44 6 6 0 0 1-3.94 1.47 5.9 5.9 0 0 1-3.06-0.85c-0.12-0.07-0.51-0.29-1.15-0.62-5.51-2.83-29.59-13.4-60.33 0a6 6 0 0 1-7.89-3.1 6 6 0 0 1 3.1-7.9 93.52 93.52 0 0 1 14.59-5 83.83 83.83 0 0 1 41.59 0 66.15 66.15 0 0 1 16.25 6.32 6 6 0 0 1 2.05 8.24zM693.15 417.52a6 6 0 0 1-5.16 2.91 5.9 5.9 0 0 1-3.06-0.85c-0.74-0.43-12.06-6.92-29.36-7.23a75.53 75.53 0 0 0-30 5.72c-0.7 0.28-1.42 0.58-2.13 0.89a6 6 0 0 1-4.79-11l1.58-0.67a92.66 92.66 0 0 1 15.31-4.88c1.72-0.38 3.4-0.7 5.06-1a83.8 83.8 0 0 1 16.19-1.06c20.17 0.64 33.45 8.4 34.29 8.9a6 6 0 0 1 2.07 8.27z" fill="#31296B" /><path d="M537.17 659.83c-30.53 0-50.87-11.89-52.11-12.63a10 10 0 0 1 10.26-17.2c1.55 0.91 37 21.14 83.7 0.78a10 10 0 1 1 8 18.33 124 124 0 0 1-49.85 10.72z" fill="#E83F63" /><path d="M668.21 467.37a6 6 0 0 1-0.27-12c0.2 0 13.57-1 14.88-7.9a6 6 0 1 1 11.79 2.23c-2.5 13.19-17.61 17.31-26.15 17.66zM395.72 467.37h-0.26c-8.54-0.35-23.65-4.47-26.15-17.66a6 6 0 0 1 11.8-2.23c1.31 6.95 14.73 7.9 14.87 7.9a6 6 0 0 1-0.26 12zM687.64 186.14c0.51 0.45 1 0.91 1.52 1.38-0.5-0.46-1.01-0.92-1.52-1.38zM754 248.35c0.83 1.69 1.63 3.39 2.42 5.1-0.8-1.71-1.6-3.45-2.42-5.1z m4.72 10.25q2.24 5.19 4.24 10.48-1.96-5.29-4.26-10.48z m6.18 15.8q0.93 2.69 1.82 5.38c-0.6-1.78-1.2-3.6-1.84-5.38zM297.94 274.25c-0.27 0.76-0.53 1.52-0.79 2.29 0.26-0.77 0.53-1.53 0.8-2.29s0.45-1.27 0.68-1.91zM317.5 268c-0.48 1.16-1 2.34-1.43 3.52 0.47-1.18 0.95-2.35 1.44-3.52 0.08-0.21 0.17-0.42 0.26-0.63z" fill="#31296B" /><path d="M773.53 304.9q-1-4.75-2.25-9.48-0.94-3.67-2-7.3c-0.8-2.79-1.65-5.57-2.55-8.32q-0.88-2.7-1.82-5.38c-0.1-0.27-0.2-0.54-0.29-0.82q-0.8-2.25-1.64-4.49-2-5.29-4.24-10.48c-0.63-1.44-1.26-2.87-1.91-4.3-0.12-0.28-0.25-0.56-0.38-0.84-0.79-1.71-1.59-3.41-2.42-5.1-0.41-0.85-0.83-1.69-1.25-2.53s-0.85-1.68-1.28-2.51l-1.28-2.35c-0.05-0.09-0.1-0.18-0.14-0.27l-1.28-2.36c-0.42-0.78-0.85-1.55-1.29-2.32q-3.75-6.67-7.92-13.11c-0.45-0.7-0.9-1.39-1.36-2.08-0.57-0.87-1.15-1.73-1.73-2.58s-1.17-1.71-1.77-2.56-1.19-1.7-1.8-2.54-1.22-1.69-1.84-2.53-1.24-1.67-1.87-2.5-1.26-1.66-1.9-2.48l-1.67-2.13c-0.74-0.93-1.49-1.86-2.24-2.78q-3.37-4.08-7-8.14c-0.75-0.83-1.5-1.67-2.27-2.5s-1.25-1.37-1.9-2.06c-0.81-0.88-1.65-1.77-2.49-2.65q-1.57-1.65-3.19-3.3c-0.87-0.87-1.74-1.73-2.63-2.58q-0.42-0.42-0.84-0.81l-1.64-1.56-1.8-1.68c-1-0.89-1.94-1.77-2.92-2.65s-2.26-2-3.4-3a1.07 1.07 0 0 0-0.16-0.14c-0.91-0.78-1.82-1.56-2.74-2.32-0.33-0.29-0.66-0.56-1-0.82-0.66-0.56-1.33-1.11-2-1.64-0.4-0.34-0.81-0.67-1.22-1q-3.6-2.89-7.33-5.67c-0.12-0.09-0.24-0.18-0.37-0.26q-2.94-1.94-5.86-3.78c-63.86-40.2-119.78-44.67-141.28-44.67a245.13 245.13 0 0 0-138.87 42.63Q389.76 154 387 156q-4.68 3.33-9.19 6.89l-0.13 0.1-2.68 2.13-0.55 0.45q-2.91 2.38-5.76 4.86c-0.94 0.81-1.87 1.63-2.79 2.47l-0.49 0.44c-0.75 0.67-1.5 1.36-2.24 2l-0.72 0.66c-0.74 0.69-1.47 1.38-2.19 2.08-0.55 0.52-1.11 1.06-1.66 1.6l-1.6 1.69c-1.55 1.54-3.09 3.11-4.6 4.7-0.47 0.49-0.94 1-1.4 1.48s-0.92 1-1.36 1.46l-1.37 1.5c-0.24 0.26-0.48 0.52-0.7 0.78-0.51 0.55-1 1.1-1.49 1.66q-2.37 2.67-4.65 5.41-3.79 4.53-7.35 9.2c-0.53 0.69-1.05 1.39-1.57 2.09s-1 1.39-1.55 2.09l-0.34 0.47-1.48 2.07a194.226 194.226 0 0 0-3.25 4.69 229.898 229.898 0 0 0-5.98 9.29c-0.64 1-1.26 2.05-1.86 3.08-0.41 0.69-0.82 1.38-1.22 2.08-0.57 1-1.12 1.94-1.66 2.91q-0.56 1-1.08 1.95-4.65 8.46-8.61 17.25l-0.33 0.72c-0.34 0.77-0.68 1.53-1 2.3l-0.1 0.24c-0.36 0.84-0.72 1.67-1.07 2.51s-0.68 1.64-1 2.46q-1.74 4.25-3.3 8.57c-0.23 0.64-0.46 1.27-0.68 1.91s-0.54 1.52-0.8 2.29l-0.24 0.7q-1.56 4.61-3 9.29-1 3.27-1.86 6.55-1.75 6.51-3.13 13.12a205.23 205.23 0 0 0-3.26 134.18q2.55 8 5.75 15.76 2.88 7 6.27 13.8a216.72 216.72 0 0 0 16 27v-67.76c0-3.42 0.09-6.83 0.27-10.21h289.79a8 8 0 0 0 7.85-6.45l4.61-23.37 4 18.15 1.19 5.39a8 8 0 0 0 7.81 6.28h18.45a8 8 0 0 0 7.88-6.61c0-0.19 0.06-0.38 0.08-0.58l1.15-11.39 1.6-15.8 35.78 26.68a8 8 0 0 0 4.78 1.59h50.55q0.68 8.07 0.68 16.32v66.41a216 216 0 0 0 16-27.51q2.87-5.88 5.34-11.91 3.22-7.82 5.79-15.86a205.19 205.19 0 0 0-3.79-135.4z m-5.79 108c-0.51 2.69-1.08 5.38-1.71 8-0.11-2.69-0.26-5.38-0.47-8-0.51-6.57-2.44-16-2.44-16h-61.5l-45-33.54a8 8 0 0 0-12.74 5.62l-3.28 32.51-0.15 1.52h-4.79l-0.12-0.55-11.91-54.16a8 8 0 0 0-7.81-6.29h-0.09a8 8 0 0 0-7.76 6.45L597.21 403h-297.5v-2.59q-1.27 9.14-1.71 18.59c-0.09 1.75-0.15 3.51-0.19 5.27-0.44-1.75-0.86-3.5-1.25-5.27a187.32 187.32 0 0 1 7.71-107.62c1.37-6.83 3.06-13.59 5.05-20.23 0.4-1.36 0.81-2.71 1.24-4.06 0.37-1.17 0.75-2.34 1.14-3.5a149.819 149.819 0 0 1 1.53-4.44 1.07 1.07 0 0 1 0.07-0.19c0.45-1.3 0.93-2.59 1.42-3.88s0.9-2.37 1.37-3.54 0.95-2.36 1.43-3.52l0.27-0.63 0.15-0.36c0.51-1.23 1-2.45 1.58-3.66s1-2.16 1.47-3.24l0.48-1.05c0.53-1.12 1.06-2.24 1.61-3.35s1.07-2.17 1.62-3.25c0.2-0.41 0.42-0.83 0.63-1.24 0.52-1 1.05-2 1.59-3 0.66-1.24 1.34-2.48 2-3.71 0.56-1 1.14-2 1.74-3a0.09 0.09 0 0 1 0-0.06c0.25-0.44 0.51-0.88 0.77-1.32 0.56-1 1.14-1.93 1.72-2.88 0.82-1.35 1.65-2.69 2.51-4 0.65-1 1.32-2.07 2-3.09 1.09-1.64 2.19-3.27 3.32-4.89 0.41-0.59 0.83-1.19 1.26-1.78 0.82-1.16 1.66-2.31 2.5-3.46 0.47-0.63 0.93-1.25 1.41-1.88l0.15-0.2c0.56-0.74 1.12-1.48 1.7-2.21a0.33 0.33 0 0 1 0.06-0.08c0.59-0.77 1.19-1.53 1.8-2.29l1.64-2c0.7-0.87 1.42-1.73 2.14-2.59 1.13-1.36 2.27-2.7 3.44-4s2.52-2.87 3.81-4.27q2.47-2.7 5-5.32 5.87-6 12.14-11.52 4.65-4.11 9.53-7.94c2.84-2.25 5.74-4.41 8.68-6.51h0.05a229.22 229.22 0 0 1 135-43.47c20.69 0 75.53 4.45 138.1 45.64q5.22 3.89 10.17 8 3.17 2.63 6.2 5.33c0.61 0.54 1.21 1.08 1.8 1.63s1 0.92 1.52 1.39l0.05 0.05c0.82 0.75 1.62 1.51 2.42 2.28l1.16 1.11c0.81 0.79 1.62 1.58 2.41 2.37 5.62 5.71 10.94 11.59 15.76 17.45l0.08 0.09q5.58 6.81 10.58 14c0.87 1.25 1.74 2.52 2.58 3.79l0.56 0.82c0.57 0.86 1.14 1.73 1.69 2.6s1 1.52 1.45 2.28 0.82 1.31 1.22 2c0.64 1 1.26 2.08 1.88 3.13 0.43 0.7 0.84 1.4 1.24 2.11l0.63 1.1c0.82 1.43 1.62 2.88 2.4 4.33 0.45 0.82 0.89 1.64 1.32 2.47 1 1.88 2 3.78 2.89 5.7 0.24 0.49 0.48 1 0.71 1.48 0.52 1 1 2.12 1.51 3.18v0.08c0.55 1.21 1.1 2.42 1.63 3.64 0.08 0.17 0.16 0.34 0.23 0.52 0.35 0.78 0.68 1.56 1 2.35 0.21 0.47 0.41 0.95 0.61 1.43 0.55 1.32 1.08 2.65 1.6 4 0.27 0.68 0.53 1.35 0.79 2 0.52 1.36 1 2.72 1.52 4.09 0.25 0.69 0.49 1.37 0.73 2.06 1 2.75 1.89 5.53 2.74 8.33 0.43 1.38 0.85 2.77 1.25 4.17q2.54 8.63 4.35 17.44a187.67 187.67 0 0 1 9.49 102.82z" fill="#31296B" /><path d="M384.84 391a8 8 0 0 1-7.95-7.22c-5.15-52.37 18.28-91.56 19.28-93.2a8 8 0 1 1 13.67 8.31c-0.4 0.67-21.62 36.66-17 83.33a8 8 0 0 1-7.17 8.74 7.26 7.26 0 0 1-0.83 0.04zM434.57 384.46a8 8 0 0 1-8-7.58c-3.32-63.15 26.9-108.86 28.19-110.77a8 8 0 0 1 13.3 8.89c-0.33 0.5-28.52 43.44-25.49 101a8 8 0 0 1-7.57 8.41zM484.84 391a8 8 0 0 1-7.95-7.22c-5.15-52.37 18.28-91.56 19.28-93.2a8 8 0 1 1 13.67 8.31c-0.4 0.67-21.62 36.66-17 83.33a8 8 0 0 1-7.17 8.74 7.26 7.26 0 0 1-0.83 0.04zM310 161.38a56.52 56.52 0 0 0-9.53 20.42 8 8 0 0 1-2.48-5.38c-0.59-11.32-17-29.54-27.24-38.36a8 8 0 0 1 10.45-12.12c2.57 2.19 20.63 18.14 28.8 35.44zM292.86 194.16a56.65 56.65 0 0 0-18.28 15.92c-23.91-4.2-43.73-21.09-44.81-22a8 8 0 0 1 10.45-12.11c0.26 0.22 22.5 19.09 44.7 19.09a34.94 34.94 0 0 0 7.94-0.9zM757 184h-0.43a8 8 0 0 1-7.57-8.41c1.15-21.78 29.53-46.85 32.77-49.64a8 8 0 1 1 10.44 12.12c-10.21 8.83-26.64 27-27.23 38.36A8 8 0 0 1 757 184zM833.23 188.05c-1 0.89-19.07 16.27-41.45 21.35A62.53 62.53 0 0 1 778 211a51.61 51.61 0 0 1-8.37-0.67 40.39 40.39 0 0 0-9.3-4.63 7.92 7.92 0 0 1-0.85-6.07 8 8 0 0 1 9.77-5.71 33.09 33.09 0 0 0 5.81 1c23.16 1.89 47.48-18.73 47.75-19a8 8 0 0 1 10.45 12.11zM368.73 170.43q2.85-2.48 5.76-4.86c-1.94 1.59-3.86 3.2-5.76 4.86z" fill="#31296B" /><path d="M392.5 152.16Q389.76 154 387 156q-4.68 3.33-9.19 6.89l1.23-1q-0.72-0.53-1.47-1a39.63 39.63 0 0 0-17.34-6.19 41.49 41.49 0 0 0-4.75-0.27 40.6 40.6 0 0 0-40.59 39.71l0.19 0.72a8 8 0 0 1-5.71 9.77A40.44 40.44 0 0 0 284.58 224a40.54 40.54 0 0 0 9.4 51c0.94 0.79 1.92 1.53 2.93 2.23q-1.56 4.61-3 9.29-1 3.27-1.86 6.55A56.42 56.42 0 0 1 265.72 260a56.82 56.82 0 0 1-2.32-16.13 56.75 56.75 0 0 1 11.18-33.77 56.65 56.65 0 0 1 18.28-15.92 56.07 56.07 0 0 1 6.18-2.9 57.92 57.92 0 0 1 1.44-9.45 56.59 56.59 0 0 1 54.35-43.33h0.68a56.74 56.74 0 0 1 37 13.7zM803.69 244.13a57.17 57.17 0 0 1-2.17 15.63 56.59 56.59 0 0 1-30.25 35.64q-0.94-3.67-2-7.3c-0.8-2.79-1.65-5.57-2.55-8.32a41.72 41.72 0 0 0 6.51-4.48 40.7 40.7 0 0 0 14.47-31.17 39.76 39.76 0 0 0-5.15-19.77 40.72 40.72 0 0 0-12.93-14 40.39 40.39 0 0 0-9.3-4.63c-0.85-0.29-1.71-0.55-2.58-0.79a8 8 0 0 1-5.65-9.75l0.19-0.72a40.72 40.72 0 0 0-40.7-39.71 39.65 39.65 0 0 0-6.46 0.52 40.84 40.84 0 0 0-17.43 7.21q-0.84 0.6-1.65 1.26l0.19 0.16q-3.6-2.89-7.33-5.67c-0.12-0.09-0.24-0.18-0.37-0.26q-2.94-1.94-5.86-3.78a56.86 56.86 0 0 1 37.87-15.43h1a56.71 56.71 0 0 1 56.58 52.83 56 56 0 0 1 6.88 3.3 56.57 56.57 0 0 1 21.44 21.58 55.76 55.76 0 0 1 7.25 27.65zM509.26 862.85l0.84 0.45c-0.3-0.12-0.57-0.3-0.84-0.45z m38.32-0.11c-0.31 0.19-0.62 0.38-0.94 0.55 0.32-0.16 0.64-0.34 1-0.53zM577 958.47a8 8 0 0 1-8 8.3h-81.31a8 8 0 0 1-8-8.3q0.14-3.84 0.39-7.7c1.73-27.91 7.29-56.12 16.73-75.94a50.59 50.59 0 0 0 13.85 6.91l0.56 0.17c-7 14.66-13.17 37.93-15.13 68.86h64.47c-2-30.94-8.1-54.21-15.12-68.87l0.55-0.17a50.79 50.79 0 0 0 13.84-6.9c9.46 19.82 15 48 16.74 75.94 0.18 2.57 0.3 5.14 0.43 7.7z" fill="#31296B" /><path d="M561 874c-0.24 0.18-0.48 0.36-0.73 0.53l-0.39 0.28a50.79 50.79 0 0 1-13.84 6.9l-0.55 0.17a57.92 57.92 0 0 1-34.22 0l-0.56-0.17a50.59 50.59 0 0 1-13.85-6.91l-0.3-0.22-0.76-0.55c0.82-0.65 1.64-1.32 2.45-2a108.23 108.23 0 0 0 10.12-9.71c0.3 0.18 0.6 0.36 0.91 0.53l0.84 0.45 0.13 0.07a37.06 37.06 0 0 0 10.51 3.6l0.58 0.11a40.7 40.7 0 0 0 7 0.61 38.62 38.62 0 0 0 7-0.62l0.57-0.1a37 37 0 0 0 10.66-3.68c0.32-0.16 0.64-0.34 1-0.53s0.62-0.35 0.92-0.54a109.51 109.51 0 0 0 9.78 9.54q1.29 1.11 2.61 2.16z" fill="#31296B" /><path d="M537.34 815.4v-0.42a7.55 7.55 0 0 0-0.23-1.15c0-0.15-0.08-0.29-0.13-0.44s-0.16-0.44-0.26-0.66c-0.08-0.18-0.17-0.36-0.26-0.53-0.1-0.18-0.2-0.36-0.31-0.53l-0.33-0.46c-0.15-0.2-0.31-0.39-0.48-0.58l-0.42-0.42a3.09 3.09 0 0 0-0.39-0.33 3.57 3.57 0 0 0-0.38-0.3 5.27 5.27 0 0 0-0.46-0.31c-0.16-0.1-0.32-0.2-0.49-0.29h-0.05l-4.79-2.5-21.89-11.42-7.72-4-12.56-6.55-9.72-5.07-5.56-2.9-0.72-0.33a8 8 0 0 0-6.24 0.12c-3.33 1.27-79.95 35.6-111.77 63.67a8 8 0 0 0-0.12 11.9c0.22 0.2 0.94 0.85 2.11 1.85 2.42 2.07 6.78 5.63 12.65 9.78 16.89 11.94 46.31 28.72 78.24 28.72a86 86 0 0 0 17.57-1.79 82.34 82.34 0 0 0 33.89-15.84l-0.76-0.55c0.82-0.65 1.64-1.32 2.45-2a108.23 108.23 0 0 0 10.12-9.71c0.3 0.18 0.6 0.36 0.91 0.53a141.68 141.68 0 0 0 19.26-27.21q2.81-5.05 5.44-10.56c0.92-1.93 1.83-3.91 2.72-5.92a8 8 0 0 0 0.68-3.22c0.02-0.22 0.01-0.4 0-0.58zM515 827a128.55 128.55 0 0 1-16 23.29A87.47 87.47 0 0 1 486.6 862a66.86 66.86 0 0 1-27.19 12.77c-31.16 6.56-63.18-10.6-81.39-23.06-3-2.08-5.69-4-7.89-5.71 29.11-22 82.61-47.16 96.75-53.65l4.48 2.34 3.12 1.63L500.59 810l6.09 3.18 12.2 6.36c-1.26 2.56-2.56 5.07-3.88 7.46z" fill="#31296B" /><path d="M702.52 840c-31.87-28.11-112.39-62.45-115.8-63.89a8 8 0 0 0-7.14 0.44l-0.12 0.07-3.19 1.85-12.81 7.44-8.24 4.79-1.18 0.69-25.76 15 4.79 2.5h0.05c0.17 0.09 0.33 0.19 0.49 0.29a5.27 5.27 0 0 1 0.46 0.31 3.57 3.57 0 0 1 0.38 0.3 3.09 3.09 0 0 1 0.39 0.33l0.42 0.42c0.17 0.19 0.33 0.38 0.48 0.58s0.22 0.3 0.33 0.46a5.64 5.64 0 0 1 0.31 0.53 4.25 4.25 0 0 1 0.21 0.43 0.54 0.54 0 0 1 0 0.11c0.1 0.22 0.18 0.44 0.26 0.66s0.09 0.29 0.13 0.44a7.55 7.55 0 0 1 0.23 1.15v0.97a8 8 0 0 1-0.68 3.22c-0.89 2-1.8 4-2.72 5.92q-2.62 5.5-5.44 10.56a142.93 142.93 0 0 0 19.06 27.1c0.31-0.17 0.62-0.35 0.92-0.54a109.51 109.51 0 0 0 9.78 9.54q1.29 1.11 2.61 2.16l0.09 0.07c-0.24 0.18-0.48 0.36-0.73 0.53a81.29 81.29 0 0 0 34.21 16 84.16 84.16 0 0 0 16.74 1.66c30.32 0 58.24-15.55 75.09-27.38 5.65-4 10.06-7.51 12.89-9.92 2-1.71 3.24-2.83 3.54-3.11a8 8 0 0 0-0.18-11.84z m-27.11 12.88c-17.91 12.23-48.07 28.08-77.77 22a65.85 65.85 0 0 1-27.53-13 89.4 89.4 0 0 1-12.34-11.85 130.09 130.09 0 0 1-15.63-22.88q-2.13-3.86-4.14-8l11.1-6.45 12-7 14.22-8.25 2.89-1.68 5.83-3.39c14.82 6.48 71 31.68 100.52 53.7-2.43 2-5.56 4.31-9.15 6.79z" fill="#31296B" /></svg>