<?xml version="1.0" standalone="no"?><!DOCTYPE svg PUBLIC "-//W3C//DTD SVG 1.1//EN" "http://www.w3.org/Graphics/SVG/1.1/DTD/svg11.dtd"><svg class="icon" width="32px" height="32.00px" viewBox="0 0 1024 1024" version="1.1" xmlns="http://www.w3.org/2000/svg"><path d="M766.39 965.34H280.52c2.63-51.05 30.41-100.44 78.88-139.88a282.81 282.81 0 0 1 49.54-32.2c16.33 20.16 46.45 34.57 82.36 40v100.25a8 8 0 0 0 8 8h48.3a8 8 0 0 0 8-8V833.16c36.48-5.65 67.29-20.69 83.22-41.24 68.38 34.96 123.86 98.54 127.57 173.42z" fill="#3A4BC1" opacity=".65" /><path d="M754 414l-0.07 0.13c-3.74 7-7.28 13.18-10.33 18.25-1-4.61-2.26-9.87-3.65-15.54-0.64-2.63-1.31-5.35-2-8.14-6.27-24.7-15.07-54.82-25-75.23-1.57-3.24-3.74-7.56-6.25-12.55-7.15-14.21-16.93-33.66-24.74-51.57-12.19-28-12.21-35.5-11.92-37.14a8 8 0 0 0-14.25-6.21c-39 51.27-90.67 73-156.16 89.93-40.21 10.37-121.54 18-164.18 15.3a8 8 0 0 0-8.47 8.68 348.18 348.18 0 0 1-3.17 84.5c-0.95 6-2 11.73-3.11 17.08a335.55 335.55 0 0 1-9.87 37.21c-0.6-0.77-1.22-1.6-1.86-2.48a136.94 136.94 0 0 1-16-29.9c-2-5-3.9-10.5-5.66-16.55q-2.18-7.39-4-15.89a278.8 278.8 0 0 1-5.59-44.55 8 8 0 0 0-14-4.9 90.82 90.82 0 0 0-6 8.24 264.93 264.93 0 0 1 3.27-70.28c12.15-64.18 48.18-108.52 107.07-131.79 22.35-8.84 41.51-15.57 58.6-20.6a8 8 0 0 0-2-15.67 236.59 236.59 0 0 0-64.28 7.23c13.25-12.2 35.08-24.67 64.87-32.91 33.59-9.3 120.75-24.17 204.51 38.23a8 8 0 0 0 12.09-9.65c-6.56-14.81-28.32-29.46-46.49-39.61 22.32 1.79 45.62 10.73 61.92 24.78 12.75 11 27.41 30.24 24.85 59.57a8 8 0 0 0 9.75 8.5c24.48-5.62 46.72-1.7 64.3 11.33 20 14.84 32.71 40.48 34.81 70.34C794.77 325.67 772 380.07 754 414z" fill="#405BCC" opacity=".47" /><path d="M785.65 510.92c-11.56 16.83-27.62 29.19-45.22 34.79-1.21 0.39-2.43 0.74-3.64 1.06q2-8.89 3.36-18c12.45-5.1 23.78-14.51 32.31-26.93 9.55-13.92 14.32-29.79 13.44-44.7-0.84-14.15-6.74-25.68-16.62-32.46a36.14 36.14 0 0 0-17-6.1c2.55-4.52 5.25-9.52 8-14.94a51.69 51.69 0 0 1 18.08 7.85c14 9.63 22.39 25.51 23.53 44.7 1.11 18.47-4.69 37.89-16.24 54.73z" fill="#FFBAB3" /><path d="M773.61 462.16a6 6 0 0 1-7.89 3.11c-3.14-1.37-10.45 0-17.25 4.71a32.59 32.59 0 0 0-5.87 5.27v-15.78c8.11-5.27 19.61-8.83 27.91-5.21a6 6 0 0 1 3.1 7.9zM287.44 546.77c-1.21-0.32-2.43-0.67-3.65-1.06-17.6-5.6-33.66-18-45.21-34.79s-17.32-36.26-16.23-54.71c1.15-19.19 9.5-35.07 23.54-44.7a51.29 51.29 0 0 1 10.42-5.51c1.18 5.58 2.49 10.82 3.89 15.75a34 34 0 0 0-5.26 3c-9.87 6.78-15.77 18.31-16.61 32.46-0.89 14.91 3.88 30.78 13.44 44.7 8.52 12.42 19.86 21.83 32.31 26.93q1.32 9.04 3.36 17.93z" fill="#FFBAB3" /><path d="M281.63 470v5.26a32.33 32.33 0 0 0-5.88-5.28c-6.8-4.69-14.11-6.08-17.24-4.71a6 6 0 0 1-4.79-11c5.65-2.46 12.78-1.6 19.31 0.87a144.22 144.22 0 0 0 8.6 14.86zM447.61 716.37v28.9c5.32-1.46 10.66 9.25 16 8.12v-33q-8.08-1.73-16-4.02zM560.62 720.38v31.82c5.34 1 10.68-9.79 16-8.42v-27.41q-7.9 2.28-16 4.01z" fill="#FFBAB3" /><path d="M748.45 873.45c-14.09-26.48-34-50.59-59-71.66a286.8 286.8 0 0 0-112.8-58.08v0.07c-5.32-1.37-16 8.13-16 8.13-1.39 1-3.29 2.18-5.64 3.5l-0.19 0.12a84.82 84.82 0 0 1-41.14 10.76A93 93 0 0 1 471 756.23h-0.09a72.61 72.61 0 0 1-7.3-4.3s-10.68-8.08-16-6.62q-7 1.93-14.06 4.23c-1.54 0.5-3.07 1-4.6 1.57q-1.27 0.43-2.55 0.9l-0.79 0.28c-1.13 0.41-2.26 0.82-3.39 1.25l-0.28 0.1c-1.15 0.43-2.29 0.87-3.43 1.32s-2.45 1-3.68 1.47c-1 0.41-2 0.83-3.06 1.27q-2.41 1-4.83 2.06l-3.1 1.39q-1.26 0.55-2.49 1.14l-1.82 0.85-2.76 1.32-0.34 0.16A302.36 302.36 0 0 0 338 801.71c-25.95 21.12-46.53 45.21-61.16 71.62C261 901.86 253 931.7 253 962a8 8 0 0 0 8 8h502.25a8 8 0 0 0 8-8c0-30.32-7.67-60.11-22.8-88.55zM449.68 761.29l0.06 0.06a7.52 7.52 0 0 0 0.64 0.62c1 0.83 24 20.32 63.26 20.32 36.25 0 59.24-19.49 60.2-20.32a8.41 8.41 0 0 0 1.5-1.71l0.15-0.25a267.35 267.35 0 0 1 37.44 13.12l-0.34 0.38c-13.6 15.42-38.78 27.08-68.33 32.08a193.37 193.37 0 0 1-32.26 2.68 196.15 196.15 0 0 1-32.06-2.6c-28.92-4.77-53.47-15.88-67.39-30.88a278.92 278.92 0 0 1 37.13-13.5z m78.58 62.37v90.51H496v-90.48q7.91 0.57 16.06 0.58t16.2-0.61zM269.18 954c2.63-51 30.41-100.44 78.88-139.88a282.81 282.81 0 0 1 49.54-32.2c16.33 20.16 46.45 34.57 82.36 40v100.25a8 8 0 0 0 8 8h48.3a8 8 0 0 0 8-8V821.82c36.48-5.65 67.29-20.69 83.22-41.24 68.38 35 123.86 98.54 127.57 173.42z" fill="#31296B" /><path d="M742.6 434.83V495a234 234 0 0 1-2.45 33.81q-1.32 9.09-3.36 18a231.24 231.24 0 0 1-160.17 169.6q-7.9 2.28-16 4a234.11 234.11 0 0 1-97 0q-8.08-1.73-16-4a231.24 231.24 0 0 1-160.17-169.6q-2-8.89-3.36-18a232.61 232.61 0 0 1-2.46-33.81v-25c8.35 12.58 15.25 18.15 15.95 18.69h0.05V495a213.27 213.27 0 0 0 1.08 21.55q0.81 8.24 2.27 16.3t3.52 16.11a215.34 215.34 0 0 0 143.11 150.59q7.88 2.49 16 4.37a215.11 215.11 0 0 0 97 0q8.11-1.87 16-4.37a215.34 215.34 0 0 0 143.1-150.61q2.07-8 3.53-16.11t2.27-16.29A213.32 213.32 0 0 0 726.6 495v-45.61l0.2 0.05a8 8 0 0 0 8.19-3.13c0.29-0.39 3.2-4.46 7.61-11.48z" fill="#FFBAB3" /><path d="M507.69 570h-1.29c-16.07-0.68-26.22-14-27.33-15.54l-1.91-2.63v-131.1a10 10 0 0 1 20 0V544.8c2.33 2.26 6.13 5.07 10.16 5.21s8.6-2.55 13.31-8a10 10 0 1 1 15.12 13.09c-8.56 9.9-18 14.9-28.06 14.9z" fill="#F47A8F" /><path d="M597.32 438.32c0 17.54 12.52 31.76 27.95 31.76s27.94-14.22 27.94-31.76-12.51-31.75-27.94-31.75-27.95 14.22-27.95 31.75zM355.16 438.32c0 17.54 12.51 31.76 27.95 31.76s27.94-14.22 27.94-31.76-12.51-31.75-27.94-31.75-27.95 14.22-27.95 31.75zM413.21 382.35h-0.09l-60.07-0.87a6 6 0 1 1 0.18-12l60.06 0.86a6 6 0 0 1-0.08 12zM655.11 382.35H655l-60-0.87a6 6 0 0 1 0.17-12l60.07 0.86a6 6 0 0 1-0.08 12z" fill="#31296B" /><path d="M546.19 628.59H546l-74-1.07a10 10 0 1 1 0.29-20l74 1.07a10 10 0 0 1-0.14 20z" fill="#E83F63" /><path d="M795.63 259.65c-2.43-34.54-17.46-64.45-41.25-82.08-19-14-42-19.48-67.3-15.94-0.59-24.31-11.07-45.83-30.67-62.72-27.41-23.62-70.16-34.46-104-26.36a8 8 0 0 0-6.1 7.08 7.87 7.87 0 0 0 0.21 2.66 252.69 252.69 0 0 0-32.14-6.85 256.74 256.74 0 0 0-104.75 6.42c-44 12.16-78.81 35.66-88.78 59.87a8 8 0 0 0 10 10.6c2.29-0.81 4.58-1.57 6.87-2.31-56.07 26.58-91.87 74.2-103.91 138.55-9.68 51.7-0.72 95.39-0.34 97.23a8 8 0 0 0 14.65 2.53c1.24-2 2.65-4.28 4.11-6.61 1.05 8.71 2.41 16.79 4 24.27 1.18 5.58 2.49 10.82 3.89 15.75A188.86 188.86 0 0 0 273 455.13a144.22 144.22 0 0 0 8.6 14.87c8.35 12.58 15.25 18.15 15.95 18.69h0.05a7.88 7.88 0 0 0 4.29 1.63 5.68 5.68 0 0 0 0.59 0 8 8 0 0 0 7.35-4.85c0.58-1.33 7.2-17.08 13.2-42.67a358.67 358.67 0 0 0 3.93-19 368.83 368.83 0 0 0 5.27-87.67c45.6 1.29 121.3-6.19 160-16.18 54.52-14.07 110.45-33.92 153.53-82 5.45 17.73 17.77 43.9 35.24 78.66 2.49 4.94 4.63 9.21 6.16 12.35 10.71 22 20.33 57.34 26.47 82.83 1.48 6.14 2.76 11.71 3.8 16.39 2 8.95 3.13 14.65 3.17 14.86a8 8 0 0 0 5.94 6.22l0.2 0.05a8 8 0 0 0 8.19-3.13c0.29-0.39 3.2-4.46 7.61-11.48 2.73-4.33 6-9.8 9.65-16.23 2.55-4.52 5.25-9.52 8-14.94 2.46-4.83 5-10 7.47-15.45 13.3-29 28.35-71.64 28.35-115.64q0.07-6.32-0.38-12.79z m-53 143l-0.07 0.13c-3.74 7-7.28 13.18-10.33 18.25-1-4.61-2.26-9.87-3.65-15.54-0.64-2.63-1.31-5.35-2-8.14-6.27-24.7-15.07-54.82-25-75.23-1.57-3.24-3.74-7.56-6.25-12.55-7.15-14.21-16.93-33.66-24.74-51.57-12.19-28-12.21-35.5-11.92-37.14a8 8 0 0 0-14.25-6.21c-39.05 51.27-90.67 73-156.16 89.93-40.21 10.37-121.54 17.95-164.18 15.3a8 8 0 0 0-8.47 8.68 348.18 348.18 0 0 1-3.17 84.5c-1 6-2 11.73-3.11 17.08a335.55 335.55 0 0 1-9.87 37.21c-0.6-0.77-1.22-1.6-1.86-2.48a136.94 136.94 0 0 1-16-29.9c-2-5-3.9-10.5-5.66-16.55q-2.18-7.39-4-15.89a278.8 278.8 0 0 1-5.56-44.53 8 8 0 0 0-14-4.9 90.82 90.82 0 0 0-5.95 8.24 264.93 264.93 0 0 1 3.28-70.34c12.15-64.18 48.18-108.52 107.07-131.79 22.35-8.84 41.51-15.57 58.6-20.6a8 8 0 0 0-2-15.67 236.59 236.59 0 0 0-64.28 7.23c13.25-12.2 35.08-24.67 64.87-32.91 33.59-9.3 120.75-24.17 204.51 38.23a8 8 0 0 0 12.09-9.65C624 111.05 602.21 96.4 584 86.25 606.36 88 629.66 97 646 111c12.75 11 27.41 30.24 24.85 59.57a8 8 0 0 0 9.75 8.5c24.48-5.62 46.72-1.7 64.3 11.33 20 14.84 32.71 40.48 34.81 70.34 3.72 53.59-19.02 107.99-37.04 141.89z" fill="#31296B" /><path d="M418 282.55a8 8 0 0 1-0.64-16c138.19-11.27 184.78-76.43 185.23-77.09a8 8 0 0 1 13.16 9.1c-0.52 0.76-13.19 18.78-44.08 38.1-28 17.5-77.24 39.66-153 45.83q-0.37 0.06-0.67 0.06zM753.93 291a8 8 0 0 1-8-7.56c-3.36-61.31-43.46-72.25-45.17-72.69a8 8 0 0 1 3.81-15.54c0.57 0.14 14 3.5 27.76 16.21 12.34 11.44 27.49 33.06 29.58 71.14a8 8 0 0 1-7.55 8.43zM289.93 282.55a8 8 0 0 1-7.46-10.89c11.86-30.65 34-56.68 64-75.29 22.6-14 41.63-18.92 42.43-19.13a8 8 0 0 1 3.94 15.51c-0.18 0.05-17.83 4.66-38.4 17.5-27.19 17-46.39 39.58-57.07 67.19a8 8 0 0 1-7.44 5.11z" fill="#31296B" /></svg>