<?xml version="1.0" standalone="no"?><!DOCTYPE svg PUBLIC "-//W3C//DTD SVG 1.1//EN" "http://www.w3.org/Graphics/SVG/1.1/DTD/svg11.dtd"><svg class="icon" width="32px" height="32.00px" viewBox="0 0 1024 1024" version="1.1" xmlns="http://www.w3.org/2000/svg"><path d="M641.536 221.696c0-68.608-55.808-124.416-124.416-124.416S392.192 153.088 392.192 221.696s55.808 124.416 124.416 124.416 124.928-55.808 124.928-124.416z" fill="#363f4d" /><path d="M452.096 356.352c-90.624 28.672-149.504 116.224-149.504 210.944v150.528c0 7.168 6.144 13.312 13.312 13.312h72.192v181.76c0 6.144 5.12 11.264 11.264 11.264h235.008c6.144 0 11.264-5.12 11.264-11.264v-181.76H701.44c16.384 0 29.696-13.312 29.696-29.696v-146.944c0.512-136.192-140.288-242.176-279.04-198.144z" fill="#363f4d" /></svg>