<?xml version="1.0" standalone="no"?><!DOCTYPE svg PUBLIC "-//W3C//DTD SVG 1.1//EN" "http://www.w3.org/Graphics/SVG/1.1/DTD/svg11.dtd"><svg class="icon" width="32px" height="32.00px" viewBox="0 0 1024 1024" version="1.1" xmlns="http://www.w3.org/2000/svg"><path d="M647.68 263.168c0-68.608-55.808-124.416-124.416-124.416S398.848 194.56 398.848 263.168s55.808 124.416 124.416 124.416 124.416-55.808 124.416-124.416zM721.92 751.616l-62.976-247.296c-13.824-67.584-74.24-116.224-143.36-116.224s-130.048 48.64-143.36 113.664l-63.488 249.856c-3.072 12.288-0.512 25.088 7.168 35.328s19.456 15.872 32.256 16.384c0 0 30.72 0.512 55.296 1.024 7.68 23.552 19.456 58.368 30.208 91.648 5.12 16.896 20.992 28.16 38.912 28.16H558.08c17.408 0 33.28-11.264 38.4-28.16 10.752-33.792 22.528-69.12 30.208-92.672 24.576 0 55.296-0.512 55.296-0.512 12.8-0.512 24.576-6.144 32.256-15.872 7.68-10.24 10.752-23.04 7.68-35.328z" fill="#363f4d" /></svg>