<?xml version="1.0" standalone="no"?><!DOCTYPE svg PUBLIC "-//W3C//DTD SVG 1.1//EN" "http://www.w3.org/Graphics/SVG/1.1/DTD/svg11.dtd"><svg class="icon" width="32px" height="32.00px" viewBox="0 0 1024 1024" version="1.1" xmlns="http://www.w3.org/2000/svg"><path d="M819.2 802.133333H204.8c-58.026667 0-102.4-44.373333-102.4-102.4v-341.333333c0-20.48 13.653333-34.133333 34.133333-34.133333s34.133333 13.653333 34.133334 34.133333v341.333333c0 20.48 13.653333 34.133333 34.133333 34.133334h614.4c20.48 0 34.133333-13.653333 34.133333-34.133334v-409.6c0-20.48-13.653333-34.133333-34.133333-34.133333H477.866667c-20.48 0-34.133333-13.653333-34.133334-34.133333s13.653333-34.133333 34.133334-34.133334h341.333333c58.026667 0 102.4 44.373333 102.4 102.4v409.6c0 54.613333-44.373333 102.4-102.4 102.4zM136.533333 187.733333c-20.48 0-34.133333 13.653333-34.133333 34.133334s13.653333 34.133333 34.133333 34.133333 34.133333-13.653333 34.133334-34.133333-13.653333-34.133333-34.133334-34.133334z m102.4 0c-20.48 0-34.133333 13.653333-34.133333 34.133334s13.653333 34.133333 34.133333 34.133333 34.133333-13.653333 34.133334-34.133333-13.653333-34.133333-34.133334-34.133334z m102.4 0c-20.48 0-34.133333 13.653333-34.133333 34.133334s13.653333 34.133333 34.133333 34.133333 34.133333-13.653333 34.133334-34.133333-13.653333-34.133333-34.133334-34.133334z" fill="#3E2AD1" /></svg>