<?xml version="1.0" standalone="no"?><!DOCTYPE svg PUBLIC "-//W3C//DTD SVG 1.1//EN" "http://www.w3.org/Graphics/SVG/1.1/DTD/svg11.dtd"><svg class="icon" width="32px" height="32.00px" viewBox="0 0 1024 1024" version="1.1" xmlns="http://www.w3.org/2000/svg"><path d="M727.296 641.152c-77.568 0-142.208 55.168-156.8 128.448L256 769.6 256 320l250.56 0c15.68 108.416 108.032 192 220.8 192 123.712 0 224-100.288 224-224S851.008 64 727.296 64c-112.768 0-205.12 83.584-220.8 192L96 256C78.336 256 64 270.336 64 288S78.336 320 96 320L192 320l0 481.536c0 17.664 14.336 32 32 32l346.624 0c14.976 72.832 79.424 127.552 156.672 127.552 88.384 0 160-71.616 160-160S815.68 641.152 727.296 641.152zM727.296 897.152c-52.928 0-96-43.072-96-96s43.072-96 96-96 96 43.072 96 96S780.224 897.152 727.296 897.152z" /></svg>