<?xml version="1.0" standalone="no"?><!DOCTYPE svg PUBLIC "-//W3C//DTD SVG 1.1//EN" "http://www.w3.org/Graphics/SVG/1.1/DTD/svg11.dtd"><svg class="icon" width="32px" height="32.00px" viewBox="0 0 1024 1024" version="1.1" xmlns="http://www.w3.org/2000/svg"><path d="M825.856 65.344H212.544a137.856 137.856 0 0 0-137.728 137.728v613.376c0 75.968 61.76 137.728 137.728 137.728h613.312a137.92 137.92 0 0 0 137.728-137.728V203.136a137.856 137.856 0 0 0-137.728-137.792z m105.792 751.168c0 58.304-47.424 105.728-105.728 105.728H212.544a105.856 105.856 0 0 1-105.728-105.728V203.136c0-58.304 47.424-105.728 105.728-105.728h613.312c58.304 0 105.728 47.424 105.728 105.728v613.376zM634.176 373.312c5.568 6.272 14.592 6.272 20.096 0s5.568-16.384 0-22.656l-123.52-139.136a13.056 13.056 0 0 0-20.096 0l-123.52 139.136c-5.504 6.272-5.504 16.384 0 22.656s14.528 6.272 20.032 0l97.6-109.824v496l-100.48-113.152c-5.568-6.272-14.592-6.272-20.032 0s-5.504 16.384 0 22.656l123.584 139.136a13.056 13.056 0 0 0 20.096 0l123.584-139.136a17.6 17.6 0 0 0 0-22.656 13.056 13.056 0 0 0-20.096 0l-94.592 106.496V263.552l97.344 109.76z" /></svg>