<?xml version="1.0" standalone="no"?><!DOCTYPE svg PUBLIC "-//W3C//DTD SVG 1.1//EN" "http://www.w3.org/Graphics/SVG/1.1/DTD/svg11.dtd"><svg class="icon" width="32px" height="32.00px" viewBox="0 0 1024 1024" version="1.1" xmlns="http://www.w3.org/2000/svg"><path d="M696 334.2H326.6c-27.4 0-49.7-22.3-49.7-49.7V114c0-27.4 22.3-49.7 49.7-49.7H696c27.4 0 49.7 22.3 49.7 49.7v170.5c0.1 27.4-22.2 49.7-49.7 49.7zM326.6 106.8c-3.9 0-7.1 3.3-7.1 7.1v170.5c0 3.9 3.3 7.1 7.1 7.1H696c3.9 0 7.1-3.3 7.1-7.1V114c0-3.9-3.3-7.1-7.1-7.1H326.6zM895 960.8H127.7c-27.4 0-49.7-22.3-49.7-49.7V541.6c0-27.4 22.3-49.7 49.7-49.7H895c27.4 0 49.7 22.3 49.7 49.7V911c0 27.5-22.3 49.8-49.7 49.8zM127.7 534.5c-3.9 0-7.1 3.3-7.1 7.1V911c0 3.9 3.3 7.1 7.1 7.1H895c3.9 0 7.1-3.3 7.1-7.1V541.6c0-3.9-3.3-7.1-7.1-7.1H127.7z" fill="#4F4F4F" /><path d="M511.4 533.1c-11.8 0-21.3-9.5-21.3-21.3l-0.1-198.9c0-11.8 9.5-21.3 21.3-21.3s21.3 9.5 21.3 21.3l0.1 198.9c0 11.8-9.5 21.3-21.3 21.3z" fill="#4F4F4F" /></svg>