<?xml version="1.0" standalone="no"?><!DOCTYPE svg PUBLIC "-//W3C//DTD SVG 1.1//EN" "http://www.w3.org/Graphics/SVG/1.1/DTD/svg11.dtd"><svg class="icon" width="32px" height="32.00px" viewBox="0 0 1024 1024" version="1.1" xmlns="http://www.w3.org/2000/svg"><path d="M568.608 802.86l45.394-286.598 187.314 29.668L568.608 802.86z" fill="#4988FD" /><path d="M568.6 832.862a30.002 30.002 0 0 1-29.62-34.694l45.39-286.6a30.008 30.008 0 0 1 34.324-24.936l187.316 29.668a29.996 29.996 0 0 1 17.54 49.768L590.846 823a29.984 29.984 0 0 1-22.244 9.864z m70.34-282.276l-24.942 157.472 127.86-141.17-102.92-16.3z" fill="#4988FD" /><path d="M659.394 229.668l-45.39 286.596-187.318-29.67 232.708-256.926z" fill="#4988FD" /><path d="M614.04 546.266c-1.56 0-3.14-0.12-4.73-0.372l-187.318-29.668a30.004 30.004 0 0 1-17.54-49.772l232.706-256.928a30.002 30.002 0 0 1 51.866 24.834l-45.39 286.596c-2.34 14.774-15.098 25.31-29.594 25.31z m-127.898-80.628l102.92 16.3 24.94-157.468-127.86 141.168z" fill="#4988FD" /><path d="M343.662 546.264H222c-16.568 0-30-13.432-30-30s13.432-30 30-30h121.662c16.568 0 30 13.432 30 30s-13.432 30-30 30zM413.662 696.264H292c-16.568 0-30-13.432-30-30s13.432-30 30-30h121.662c16.568 0 30 13.432 30 30s-13.432 30-30 30zM413.662 396.264H292c-16.568 0-30-13.432-30-30s13.432-30 30-30h121.662c16.568 0 30 13.432 30 30s-13.432 30-30 30z" fill="#DFECFD" /></svg>