<?xml version="1.0" standalone="no"?><!DOCTYPE svg PUBLIC "-//W3C//DTD SVG 1.1//EN" "http://www.w3.org/Graphics/SVG/1.1/DTD/svg11.dtd"><svg class="icon" width="32px" height="32.00px" viewBox="0 0 1024 1024" version="1.1" xmlns="http://www.w3.org/2000/svg"><path d="M709.973333 860.16H211.626667c-58.026667 0-102.4-44.373333-102.4-102.4v-443.733333c0-58.026667 44.373333-102.4 102.4-102.4h211.626666c27.306667 0 54.613333 10.24 71.68 30.72l27.306667 27.306666c6.826667 6.826667 13.653333 10.24 23.893333 10.24h177.493334c20.48 0 34.133333 13.653333 34.133333 34.133334s-13.653333 34.133333-34.133333 34.133333H546.133333c-27.306667 0-54.613333-10.24-71.68-30.72l-27.306666-27.306667c-6.826667-6.826667-13.653333-10.24-23.893334-10.24H211.626667c-20.48 0-34.133333 13.653333-34.133334 34.133334v443.733333c0 20.48 13.653333 34.133333 34.133334 34.133333h498.346666c13.653333 0 27.306667-10.24 30.72-23.893333l102.4-283.306667H406.186667l-61.44 180.906667c-3.413333 17.066667-23.893333 27.306667-40.96 20.48-17.066667-6.826667-27.306667-23.893333-20.48-44.373333l61.44-180.906667c10.24-27.306667 34.133333-47.786667 64.853333-47.786667h440.32c23.893333 0 44.373333 10.24 54.613333 30.72 13.653333 17.066667 17.066667 40.96 6.826667 61.44l-102.4 283.306667c-17.066667 44.373333-54.613333 71.68-98.986667 71.68z" fill="#FFB000" /></svg>