<?xml version="1.0" standalone="no"?><!DOCTYPE svg PUBLIC "-//W3C//DTD SVG 1.1//EN" "http://www.w3.org/Graphics/SVG/1.1/DTD/svg11.dtd"><svg class="icon" width="32px" height="32.00px" viewBox="0 0 1024 1024" version="1.1" xmlns="http://www.w3.org/2000/svg"><path d="M201.360725 853.333333h238.933334v34.133334H201.360725z" fill="#B3B3B3" /><path d="M628.027392 1024h-477.866667A51.2 51.2 0 0 1 98.960725 972.8v-921.6A51.2 51.2 0 0 1 150.160725 0h569.685334a42.666667 42.666667 0 0 1 30.037333 12.288l155.989333 155.989333a42.666667 42.666667 0 0 1 12.288 30.037334V597.333333h-34.133333V198.314667a7.168 7.168 0 0 0-2.389333-5.802667l-155.989334-155.989333a7.168 7.168 0 0 0-5.802666-2.389334H150.160725a17.066667 17.066667 0 0 0-17.066666 17.066667v921.6a17.066667 17.066667 0 0 0 17.066666 17.066667h477.866667z" fill="#4D4D4D" /><path d="M901.094059 204.8h-170.666667a17.066667 17.066667 0 0 1-17.066667-17.066667v-170.666666h34.133334V170.666667h153.6z" fill="#4D4D4D" /><path d="M201.360725 170.666667h443.733334v34.133333H201.360725zM201.360725 307.2h614.4v34.133333H201.360725zM201.360725 443.733333h614.4v34.133334H201.360725zM201.360725 580.266667h238.933334v34.133333H201.360725zM201.360725 716.8h204.8v34.133333H201.360725z" fill="#B3B3B3" /><path d="M679.227392 955.733333a204.8 204.8 0 0 1 0-409.6 204.8 204.8 0 0 1 0 409.6z m0-375.466666a170.666667 170.666667 0 0 0 0 341.333333 170.666667 170.666667 0 0 0 0-341.333333z" fill="#05AFC8" /><path d="M907.920725 998.058667a17.408 17.408 0 0 1-12.288-5.12l-96.256-96.938667a17.066667 17.066667 0 0 1 0-23.893333 17.066667 17.066667 0 0 1 24.234667 0l96.256 96.938666a16.384 16.384 0 0 1 0 23.893334 17.066667 17.066667 0 0 1-11.946667 5.12z" fill="#05AFC8" /></svg>